<?xml version="1.0" encoding="UTF-8"?>
<svg version="1.1" xmlns="http://www.w3.org/2000/svg" width="150" height="150">
<path d="M0 0 C21.12 0 42.24 0 64 0 C62.68 0.66 61.36 1.32 60 2 C60.95519531 2.268125 61.91039063 2.53625 62.89453125 2.8125 C71.8943801 5.48336258 78.71878447 8.90491796 86 15 C87.07507813 15.83337891 87.07507813 15.83337891 88.171875 16.68359375 C96.49012523 23.40590062 102.18622817 32.55956407 107 42 C107.50885742 42.79599609 108.01771484 43.59199219 108.54199219 44.41210938 C110.60484184 49.48840517 110.44846553 54.14372154 110.43359375 59.57421875 C110.4388356 60.69383499 110.44407745 61.81345123 110.44947815 62.96699524 C110.45589056 65.33305026 110.45457151 67.6991372 110.44604492 70.06518555 C110.43756964 73.65797851 110.46625365 77.2491622 110.49804688 80.84179688 C110.49966009 83.14843703 110.49907907 85.45507996 110.49609375 87.76171875 C110.50732773 88.82355881 110.51856171 89.88539886 110.53013611 90.97941589 C110.44515051 100.22797502 107.95610222 108.21327124 103.25 116.1875 C102.82203125 116.92355469 102.3940625 117.65960938 101.953125 118.41796875 C101.63859375 118.94003906 101.3240625 119.46210937 101 120 C100.34 120 99.68 120 99 120 C98.6596875 121.0828125 98.6596875 121.0828125 98.3125 122.1875 C96.72668125 125.58568303 94.73876676 127.45230999 92 130 C90.88625 131.175625 90.88625 131.175625 89.75 132.375 C81.06783657 140.66251964 68.77459668 149.9131246 56.32348633 150.24047852 C55.37431839 150.26622452 54.42515045 150.29197052 53.44721985 150.3184967 C49.06171619 150.40354012 44.67636981 150.46869714 40.2902832 150.51489258 C37.99475212 150.54631613 35.69937785 150.59383871 33.40454102 150.65844727 C13.12812315 151.22082456 1.37699132 147.46555332 -14.44921875 134.89453125 C-16.63374565 133.27202658 -18.34378228 132.2738856 -20.875 131.375 C-27.32547998 128.53678881 -29.82794434 123.87102223 -32.35717773 117.42651367 C-33.35655628 114.75631403 -34.32536844 112.08525037 -35.20605469 109.37329102 C-35.77108801 107.68427229 -36.3927819 106.01376002 -37.05175781 104.35913086 C-40.63245641 94.57757421 -40.61070334 85.08400283 -40.52148438 74.76977539 C-40.49996208 71.80728023 -40.52141495 68.84718919 -40.546875 65.88476562 C-40.54423267 63.9713489 -40.53910966 62.05793365 -40.53125 60.14453125 C-40.53934692 59.27447952 -40.54744385 58.4044278 -40.55578613 57.50801086 C-40.38917596 46.4320938 -35.11336102 37.92147631 -29 29 C-28.52691406 28.2884375 -28.05382813 27.576875 -27.56640625 26.84375 C-18.83172501 14.3727037 -6.38921543 5.31315364 8.54296875 2.41015625 C9.35378906 2.27480469 10.16460937 2.13945313 11 2 C5.555 1.505 5.555 1.505 0 1 C0 0.67 0 0.34 0 0 Z " fill="#FBC542" transform="translate(40,0)"/>
<path d="M0 0 C0 0.99 0 1.98 0 3 C-0.58007812 3.31453125 -1.16015625 3.6290625 -1.7578125 3.953125 C-2.53898437 4.38109375 -3.32015625 4.8090625 -4.125 5.25 C-5.27355469 5.87648438 -5.27355469 5.87648438 -6.4453125 6.515625 C-12.13363012 9.82076368 -16.88500083 13.5495335 -21.625 18.0625 C-27.56951755 23.68513699 -27.56951755 23.68513699 -30.3125 25.69140625 C-32.45853731 27.3555787 -33.12058103 29.21575968 -34.08203125 31.70703125 C-35.73127419 35.82662958 -37.7047828 39.80428516 -39.59765625 43.81640625 C-44.25650827 54.39290875 -44.97708564 65.627533 -43 77 C-41.54276115 80.33443944 -41.54276115 80.33443944 -40 83 C-39.8125 85.875 -39.8125 85.875 -40 88 C-39.34 88 -38.68 88 -38 88 C-37.46117187 89.17433594 -36.92234375 90.34867187 -36.3671875 91.55859375 C-34.16502411 95.95807848 -31.39998272 99.42042223 -28.125 103.0625 C-27.10677083 104.22005208 -26.08854167 105.37760417 -25.0703125 106.53515625 C-24.3131897 107.38194946 -24.3131897 107.38194946 -23.54077148 108.24584961 C-22.47819054 109.45558564 -21.43709257 110.6844157 -20.41430664 111.92797852 C-19.89989014 112.55244873 -19.38547363 113.17691895 -18.85546875 113.8203125 C-18.39809326 114.38637207 -17.94071777 114.95243164 -17.46948242 115.53564453 C-15.02518832 117.97141061 -12.20252541 118.8069023 -9 120 C-8.67 120.66 -8.34 121.32 -8 122 C-5.42562419 122.91280138 -5.42562419 122.91280138 -2.4375 123.625 C-1.42558594 123.88539062 -0.41367187 124.14578125 0.62890625 124.4140625 C1.41136719 124.60742188 2.19382813 124.80078125 3 125 C3.33 122.69 3.66 120.38 4 118 C4.66 118 5.32 118 6 118 C6.1546875 117.195625 6.1546875 117.195625 6.3125 116.375 C7.51284236 112.22836274 9.04565958 108.87481205 12.25 105.9375 C14.32077406 104.10190807 14.32077406 104.10190807 13.875 101.3125 C13.23669149 98.83572904 13.23669149 98.83572904 11 98 C11 97.01 11 96.02 11 95 C12.0725 94.54625 13.145 94.0925 14.25 93.625 C16.88062317 92.49911463 19.46000396 91.32079794 22 90 C24.875 94.75 24.875 94.75 26 97 C27.98 96.67 29.96 96.34 32 96 C32.66 94.02 33.32 92.04 34 90 C37.3891571 90.60520662 39.30430129 91.91300745 42 94 C43.485 94.495 43.485 94.495 45 95 C44.855625 95.556875 44.71125 96.11375 44.5625 96.6875 C44.2840625 97.8321875 44.2840625 97.8321875 44 99 C43.731875 99.78375 43.46375 100.5675 43.1875 101.375 C42.90714748 105.29993528 44.60200095 106.97094857 47 110 C47.86625 110.825 48.7325 111.65 49.625 112.5 C52.95095587 116.00100618 53.91716219 119.09473034 54.125 123.875 C54.08375 124.57625 54.0425 125.2775 54 126 C57.96 125.01 57.96 125.01 62 124 C62 123.34 62 122.68 62 122 C68 119 68 119 69.93359375 118.19140625 C75.80691979 115.61538606 79.11792555 112.02386105 83 107 C84.13695312 105.56140625 84.13695312 105.56140625 85.296875 104.09375 C89.51439852 98.63577839 93.30382498 93.36020774 96 87 C96.7734375 85.2365625 96.7734375 85.2365625 97.5625 83.4375 C98.036875 82.303125 98.51125 81.16875 99 80 C99.56125685 78.68696792 100.12372846 77.37445433 100.6875 76.0625 C101.120625 75.051875 101.55375 74.04125 102 73 C102.33 73 102.66 73 103 73 C103.8248452 98.16729616 103.8248452 98.16729616 99 107 C98.54496094 107.87269531 98.08992187 108.74539062 97.62109375 109.64453125 C96.46104093 111.7960822 95.26117762 113.9066519 94 116 C93.34 116 92.68 116 92 116 C91.6596875 117.0828125 91.6596875 117.0828125 91.3125 118.1875 C89.72668125 121.58568303 87.73876676 123.45230999 85 126 C83.88625 127.175625 83.88625 127.175625 82.75 128.375 C74.06783657 136.66251964 61.77459668 145.9131246 49.32348633 146.24047852 C48.37431839 146.26622452 47.42515045 146.29197052 46.44721985 146.3184967 C42.06171619 146.40354012 37.67636981 146.46869714 33.2902832 146.51489258 C30.99475212 146.54631613 28.69937785 146.59383871 26.40454102 146.65844727 C6.12812315 147.22082456 -5.62300868 143.46555332 -21.44921875 130.89453125 C-23.63374565 129.27202658 -25.34378228 128.2738856 -27.875 127.375 C-34.32547998 124.53678881 -36.82794434 119.87102223 -39.35717773 113.42651367 C-40.35655628 110.75631403 -41.32536844 108.08525037 -42.20605469 105.37329102 C-42.77108801 103.68427229 -43.3927819 102.01376002 -44.05175781 100.35913086 C-47.63245641 90.57757421 -47.61070334 81.08400283 -47.52148438 70.76977539 C-47.49996208 67.80728023 -47.52141495 64.84718919 -47.546875 61.88476562 C-47.54423267 59.9713489 -47.53910966 58.05793365 -47.53125 56.14453125 C-47.53934692 55.27447952 -47.54744385 54.4044278 -47.55578613 53.50801086 C-47.38917596 42.4320938 -42.11336102 33.92147631 -36 25 C-35.52691406 24.2884375 -35.05382813 23.576875 -34.56640625 22.84375 C-26.93867815 11.95316937 -13.89241067 -0.30872024 0 0 Z " fill="#D99636" transform="translate(47,4)"/>
<path d="M0 0 C4.26023668 3.03062677 7.95066786 6.93649198 10.30078125 11.63671875 C11.61401243 20.21325322 12.64155436 29.45182463 9.30078125 37.63671875 C7.23828125 38.82421875 7.23828125 38.82421875 5.30078125 39.63671875 C4.55802094 41.60752032 4.55802094 41.60752032 4.30078125 43.63671875 C3.80578125 44.62671875 3.80578125 44.62671875 3.30078125 45.63671875 C-4.4013521 48.027036 -12.72759982 49.07533363 -20.69921875 47.63671875 C-24.66300351 45.12334144 -27.58049371 42.10999359 -30.69921875 38.63671875 C-31.35921875 38.30671875 -32.01921875 37.97671875 -32.69921875 37.63671875 C-32.69921875 36.97671875 -32.69921875 36.31671875 -32.69921875 35.63671875 C-33.35921875 35.63671875 -34.01921875 35.63671875 -34.69921875 35.63671875 C-37.87537264 24.91719937 -37.38775335 15.92713884 -32.69921875 5.63671875 C-24.449348 -4.72850348 -11.34615463 -6.3154832 0 0 Z " fill="#84EAE3" transform="translate(47.69921875,50.36328125)"/>
<path d="M0 0 C1.4540625 0.7425 1.4540625 0.7425 2.9375 1.5 C5.23338693 3.16973595 5.85144406 4.45676899 7 7 C7.99 7.66 8.98 8.32 10 9 C12.68280842 17.04842526 11.47746144 25.98755733 8.24609375 33.69140625 C4.8495647 39.98403531 -0.61975348 42.10241783 -7.1328125 44.2734375 C-14.46691822 46.13194385 -22.3071897 45.7608398 -29 42 C-33.06138632 38.34246636 -36.71841593 34.60939578 -37.16113281 28.93457031 C-37.20678197 26.37290948 -37.23527567 23.81203362 -37.25 21.25 C-37.270625 20.36828125 -37.29125 19.4865625 -37.3125 18.578125 C-37.35118316 12.0793546 -36.49821093 7.44991033 -32.60546875 2.07421875 C-32.13753906 1.61660156 -31.66960937 1.15898438 -31.1875 0.6875 C-30.72730469 0.21699219 -30.26710938 -0.25351562 -29.79296875 -0.73828125 C-20.99144249 -6.93194787 -8.77021325 -5.03509111 0 0 Z " fill="#C2B1BD" transform="translate(129,53)"/>
<path d="M0 0 C2.99324263 1.0975223 3.84610901 1.67682892 5.25 4.625 C5.4975 5.40875 5.745 6.1925 6 7 C7.98 6.67 9.96 6.34 12 6 C12.66 4.02 13.32 2.04 14 0 C17.3891571 0.60520662 19.30430129 1.91300745 22 4 C22.99 4.33 23.98 4.66 25 5 C24.855625 5.556875 24.71125 6.11375 24.5625 6.6875 C24.2840625 7.8321875 24.2840625 7.8321875 24 9 C23.731875 9.78375 23.46375 10.5675 23.1875 11.375 C22.90714748 15.29993528 24.60200095 16.97094857 27 20 C27.86625 20.825 28.7325 21.65 29.625 22.5 C34.39550363 27.52158277 34.24458342 32.91029309 34.36328125 39.51171875 C34 42 34 42 32.75390625 43.77734375 C29.49777066 46.0472111 25.88024057 46.08912213 22 46 C17.5672802 44.48884552 15.45017254 41.37706565 13.13671875 37.47265625 C11.01773408 32.86331847 10.01492076 27.95083297 9 23 C8.34 23.33 7.68 23.66 7 24 C6.27990318 26.22734399 5.64792587 28.48353199 5.0625 30.75 C2.29233361 41.47177759 2.29233361 41.47177759 -3 45 C-7.20312789 45.66568876 -10.82070106 45.66155794 -14.5625 43.5625 C-17.04185377 39.14278242 -16.71728149 34.6704196 -15.421875 29.84765625 C-14.70018102 27.84764261 -13.88978365 25.93058562 -13 24 C-12.525625 22.9275 -12.05125 21.855 -11.5625 20.75 C-10 18 -10 18 -7.75 15.9375 C-5.67922594 14.10190807 -5.67922594 14.10190807 -6.125 11.3125 C-6.76330851 8.83572904 -6.76330851 8.83572904 -9 8 C-9 7.01 -9 6.02 -9 5 C-7.88625 4.54625 -6.7725 4.0925 -5.625 3.625 C-2.03800992 2.27534014 -2.03800992 2.27534014 0 0 Z " fill="#E05430" transform="translate(67,94)"/>
<path d="M0 0 C1.216875 0.061875 2.43375 0.12375 3.6875 0.1875 C7.97251354 1.23854106 9.8293223 2.98398951 13 6 C12.67 7.32 12.34 8.64 12 10 C11.34 10 10.68 10 10 10 C10 10.99 10 11.98 10 13 C8.38363648 14.7678976 6.74753024 16.36897177 5 18 C3.57776263 19.39015683 2.16135624 20.78629741 0.75 22.1875 C0.06421875 22.86167969 -0.6215625 23.53585938 -1.328125 24.23046875 C-3.07449111 25.90798995 -3.07449111 25.90798995 -4 28 C-6.86724686 27.42655063 -7.8614515 27.1385485 -10 25 C-9.90584638 21.51631602 -9.12071245 20.13795709 -6.8125 17.5 C-4.79968687 15.71083277 -2.77906595 14.00260424 -0.6875 12.3125 C0.199375 11.549375 1.08625 10.78625 2 10 C2 9.34 2 8.68 2 8 C-3.68154235 7.54547661 -6.60036521 8.33363768 -11 12 C-11.33 12.99 -11.66 13.98 -12 15 C-12.66 15 -13.32 15 -14 15 C-13.42010418 21.98401768 -13.42010418 21.98401768 -10 28 C-6.48470783 30.73411613 -2.25761391 30.40629318 2 30 C4.90625783 29.24184578 6.41099771 28.80600314 8.1875 26.375 C9.35529166 22.96145514 10.18009928 19.51386025 11 16 C12.98 16.99 14.96 17.98 17 19 C17.1953125 25.0546875 17.1953125 25.0546875 17 27 C16.34 27.66 15.68 28.32 15 29 C14.91363281 29.64324219 14.82726562 30.28648438 14.73828125 30.94921875 C14 33 14 33 11.48046875 34.51953125 C3.51035856 37.64895767 -2.55581905 38.53668878 -11 37 C-11 36.34 -11 35.68 -11 35 C-11.61875 34.690625 -12.2375 34.38125 -12.875 34.0625 C-14.25 33.375 -15.625 32.6875 -17 32 C-17 31.34 -17 30.68 -17 30 C-17.66 30 -18.32 30 -19 30 C-21.14046867 23.84615257 -22.36661859 17.39393824 -20.3828125 11.015625 C-16.13543488 2.52086975 -9.19966661 -1.09598916 0 0 Z " fill="#FDCE59" transform="translate(83,22)"/>
<path d="M0 0 C4.26023668 3.03062677 7.95066786 6.93649198 10.30078125 11.63671875 C11.61401243 20.21325322 12.64155436 29.45182463 9.30078125 37.63671875 C7.23828125 38.82421875 7.23828125 38.82421875 5.30078125 39.63671875 C4.55802094 41.60752032 4.55802094 41.60752032 4.30078125 43.63671875 C3.80578125 44.62671875 3.80578125 44.62671875 3.30078125 45.63671875 C-4.4013521 48.027036 -12.72759982 49.07533363 -20.69921875 47.63671875 C-24.66300351 45.12334144 -27.58049371 42.10999359 -30.69921875 38.63671875 C-31.35921875 38.30671875 -32.01921875 37.97671875 -32.69921875 37.63671875 C-32.69921875 36.97671875 -32.69921875 36.31671875 -32.69921875 35.63671875 C-33.35921875 35.63671875 -34.01921875 35.63671875 -34.69921875 35.63671875 C-37.87537264 24.91719937 -37.38775335 15.92713884 -32.69921875 5.63671875 C-24.449348 -4.72850348 -11.34615463 -6.3154832 0 0 Z M-27.69921875 14.63671875 C-29.70392451 20.65083603 -30.16037507 28.3251015 -27.5703125 34.1953125 C-26.08655152 36.24468471 -24.55811297 37.92446584 -22.69921875 39.63671875 C-21.43078125 40.84328125 -21.43078125 40.84328125 -20.13671875 42.07421875 C-13.93920676 44.89126965 -6.85298568 45.6295713 -0.32421875 43.57421875 C0.54203125 42.93484375 1.40828125 42.29546875 2.30078125 41.63671875 C2.92984375 41.32605469 3.55890625 41.01539063 4.20703125 40.6953125 C6.68177802 39.20751831 7.82760891 38.14828763 9.30078125 35.63671875 C10.47755701 27.84156657 10.73240795 18.52881777 6.81640625 11.44140625 C3.07700047 6.98881483 -1.62323529 4.22632033 -7.328125 3.1328125 C-16.66729712 2.69080588 -22.5284615 7.15820742 -27.69921875 14.63671875 Z " fill="#D1993D" transform="translate(47.69921875,50.36328125)"/>
<path d="M0 0 C1.4540625 0.7425 1.4540625 0.7425 2.9375 1.5 C5.23338693 3.16973595 5.85144406 4.45676899 7 7 C7.99 7.66 8.98 8.32 10 9 C12.68280842 17.04842526 11.47746144 25.98755733 8.24609375 33.69140625 C4.8495647 39.98403531 -0.61975348 42.10241783 -7.1328125 44.2734375 C-14.46691822 46.13194385 -22.3071897 45.7608398 -29 42 C-33.06138632 38.34246636 -36.71841593 34.60939578 -37.16113281 28.93457031 C-37.20678197 26.37290948 -37.23527567 23.81203362 -37.25 21.25 C-37.270625 20.36828125 -37.29125 19.4865625 -37.3125 18.578125 C-37.35118316 12.0793546 -36.49821093 7.44991033 -32.60546875 2.07421875 C-32.13753906 1.61660156 -31.66960937 1.15898438 -31.1875 0.6875 C-30.72730469 0.21699219 -30.26710938 -0.25351562 -29.79296875 -0.73828125 C-20.99144249 -6.93194787 -8.77021325 -5.03509111 0 0 Z M-29.4375 5.44140625 C-34.547542 11.99625179 -36.92979596 19.76466434 -36 28 C-33.65804581 33.03086456 -30.11908111 39.44045944 -25 42 C-15.41695823 43.05204249 -15.41695823 43.05204249 -6.3046875 40.68359375 C-4.23485466 38.92462934 -2.6292016 37.16941055 -1 35 C-0.55140625 34.47148438 -0.1028125 33.94296875 0.359375 33.3984375 C4.00562552 28.32865082 3.90536641 21.98683732 3 16 C1.588131 13.31823183 1.588131 13.31823183 0 11 C-0.268125 10.154375 -0.53625 9.30875 -0.8125 8.4375 C-2.4816862 5.01127569 -4.71996747 3.83681822 -8 2 C-15.14588489 -0.20319372 -23.86991412 -0.14130894 -29.4375 5.44140625 Z " fill="#C9903A" transform="translate(129,53)"/>
<path d="M0 0 C1.62109375 1.44140625 1.62109375 1.44140625 3 3 C3.804375 3.4125 4.60875 3.825 5.4375 4.25 C8.8278255 6.56534424 10.62829781 9.19463264 12 13 C13.0596549 19.45212094 11.37071523 25.03087772 9 31 C8.01 31 7.02 31 6 31 C5.95101562 30.22914062 5.90203125 29.45828125 5.8515625 28.6640625 C5.77679688 27.66117188 5.70203125 26.65828125 5.625 25.625 C5.55539063 24.62726563 5.48578125 23.62953125 5.4140625 22.6015625 C5.23636036 19.84491121 5.23636036 19.84491121 3 18 C0.67724823 17.59952556 -1.65739357 17.2602896 -4 17 C-4 14.69 -4 12.38 -4 10 C-9.13574754 10.43523284 -12.77764767 10.80124824 -17 14 C-17.33 14.66 -17.66 15.32 -18 16 C-18.66 16 -19.32 16 -20 16 C-20.33 16.99 -20.66 17.98 -21 19 C-20.04683222 12.32782554 -18.80735078 6.94470366 -14 2 C-9.85439496 -0.48736302 -4.72374705 -0.82267505 0 0 Z " fill="#F5F9FA" transform="translate(115,56)"/>
<path d="M0 0 C0 0.99 0 1.98 0 3 C-0.58007812 3.31453125 -1.16015625 3.6290625 -1.7578125 3.953125 C-2.53898437 4.38109375 -3.32015625 4.8090625 -4.125 5.25 C-5.27355469 5.87648438 -5.27355469 5.87648438 -6.4453125 6.515625 C-12.13363012 9.82076368 -16.88500083 13.5495335 -21.625 18.0625 C-27.56951755 23.68513699 -27.56951755 23.68513699 -30.3125 25.69140625 C-32.45853731 27.3555787 -33.12058103 29.21575968 -34.08203125 31.70703125 C-35.73127419 35.82662958 -37.7047828 39.80428516 -39.59765625 43.81640625 C-43.77695414 53.30422737 -44.19717673 62.74681012 -44 73 C-44.33 73 -44.66 73 -45 73 C-45 70.69 -45 68.38 -45 66 C-45.66 66 -46.32 66 -47 66 C-47.83033474 44.06000137 -47.83033474 44.06000137 -43 36 C-42.20142578 34.63681641 -42.20142578 34.63681641 -41.38671875 33.24609375 C-39.66486051 30.43996113 -37.86081625 27.71556481 -36 25 C-35.52691406 24.2884375 -35.05382813 23.576875 -34.56640625 22.84375 C-26.93867815 11.95316937 -13.89241067 -0.30872024 0 0 Z " fill="#EFC151" transform="translate(47,4)"/>
<path d="M0 0 C4.31860245 1.75280065 6.45971939 3.89692708 8.5 8.0625 C8.97541678 10.85557357 9.00511605 12.38669828 8 15 C7.21625 14.195625 6.4325 13.39125 5.625 12.5625 C1.56179464 9.10486851 -2.84620904 9.11203893 -8 9 C-8 11.31 -8 13.62 -8 16 C-10.01822917 15.90234375 -12.03645833 15.8046875 -14.0546875 15.70703125 C-14.69664063 15.80371094 -15.33859375 15.90039062 -16 16 C-18.69674074 20.04511111 -18.91688797 23.24746403 -18 28 C-16.31354189 30.97091167 -14.30298346 33.4845389 -12 36 C-17.05222031 33.65662973 -20.92654145 30.25276167 -23 25 C-23.8944003 17.88245659 -23.9366154 11.44897946 -19.46484375 5.58984375 C-13.80880612 -0.54884242 -8.03683195 -1.23726329 0 0 Z " fill="#F2F5F7" transform="translate(47,56)"/>
<path d="M0 0 C0.99 0.495 0.99 0.495 2 1 C1.50839669 6.43533241 0.12206673 10.2029005 -2.5625 14.9375 C-3.52349609 16.65259766 -3.52349609 16.65259766 -4.50390625 18.40234375 C-4.99761719 19.25957031 -5.49132812 20.11679688 -6 21 C-6.66 21 -7.32 21 -8 21 C-8.226875 21.721875 -8.45375 22.44375 -8.6875 23.1875 C-10.27331875 26.58568303 -12.26123324 28.45230999 -15 31 C-15.7425 31.78375 -16.485 32.5675 -17.25 33.375 C-25.91514075 41.64627071 -38.40920458 51.17327755 -50.88671875 51.09765625 C-51.82451172 51.09443359 -52.76230469 51.09121094 -53.72851562 51.08789062 C-55.19321289 51.07532227 -55.19321289 51.07532227 -56.6875 51.0625 C-58.16959961 51.05573242 -58.16959961 51.05573242 -59.68164062 51.04882812 C-62.12115474 51.03704303 -64.56054689 51.02059011 -67 51 C-66.67 50.34 -66.34 49.68 -66 49 C-62.63471927 48.46582846 -59.40372484 48 -56 48 C-55.01 47.505 -55.01 47.505 -54 47 C-51.43918358 46.76641202 -48.87994966 46.61836931 -46.3125 46.4765625 C-43.62972596 46.20613439 -43.62972596 46.20613439 -42 43 C-40.67729382 42.62672095 -39.34211131 42.29601707 -38 42 C-36.2254986 40.93460966 -36.2254986 40.93460966 -34.5625 39.625 C-32.65906348 38.18527771 -30.854696 36.92154593 -28.75 35.78515625 C-24.84479977 33.2501044 -21.72392345 30.09246047 -18.4375 26.8125 C-17.77814453 26.17763672 -17.11878906 25.54277344 -16.43945312 24.88867188 C-13.18451405 21.65336057 -10.68255425 18.7481963 -8.72265625 14.57421875 C-8.15417969 13.39472656 -7.58570313 12.21523437 -7 11 C-6.01 10.67 -5.02 10.34 -4 10 C-3.01296048 7.93502613 -3.01296048 7.93502613 -2.375 5.5 C-1.07174888 1.07174888 -1.07174888 1.07174888 0 0 Z " fill="#C8883E" transform="translate(147,99)"/>
<path d="M0 0 C2.99324263 1.0975223 3.84610901 1.67682892 5.25 4.625 C5.4975 5.40875 5.745 6.1925 6 7 C7.98 6.67 9.96 6.34 12 6 C12.66 4.02 13.32 2.04 14 0 C17.3891571 0.60520662 19.30430129 1.91300745 22 4 C22.99 4.33 23.98 4.66 25 5 C24.30058404 8.14737182 23.23921302 11.02588876 22 14 C19.525 13.505 19.525 13.505 17 13 C16.505 13.825 16.01 14.65 15.5 15.5 C13 18 13 18 9.0625 18.625 C5.53273945 18.4281732 5.01532853 18.01362536 2.1875 15.5 C1.465625 14.675 0.74375 13.85 0 13 C-0.99 13 -1.98 13 -3 13 C-6.02621177 16.10186706 -8.04376355 18.7845082 -9.625 22.8125 C-10.305625 24.3903125 -10.305625 24.3903125 -11 26 C-11.99 26.33 -12.98 26.66 -14 27 C-13.71125 26.443125 -13.4225 25.88625 -13.125 25.3125 C-11.94847042 23.00757472 -11.94847042 23.00757472 -11.125 20.5 C-10 18 -10 18 -7.8125 16 C-5.6779894 14.11710546 -5.6779894 14.11710546 -6.125 11.3125 C-6.76330851 8.83572904 -6.76330851 8.83572904 -9 8 C-9 7.01 -9 6.02 -9 5 C-7.88625 4.54625 -6.7725 4.0925 -5.625 3.625 C-2.03800992 2.27534014 -2.03800992 2.27534014 0 0 Z " fill="#F18230" transform="translate(67,94)"/>
<path d="M0 0 C3.40184106 -0.47625775 5.92712571 -0.78196478 8.80078125 1.3125 C11.65134352 4.36035656 12.89451336 6.39872615 13.625 10.5625 C12.89475316 14.57885765 11.55524326 16.84352303 9 20 C5.47852564 21.76073718 1.83412157 21.65507605 -2 21 C-4.8168163 19.50303069 -6.51167889 17.82267798 -8 15 C-8.46461431 11.9275505 -8.36939662 9.07830516 -8 6 C-5.69 5.34 -3.38 4.68 -1 4 C-0.67 2.68 -0.34 1.36 0 0 Z " fill="#282629" transform="translate(40,69)"/>
<path d="M0 0 C0.66 0.99 1.32 1.98 2 3 C4.3140622 3.73075648 6.64828869 4.40138258 9 5 C10 6 10 6 10.3125 9.75 C10.28250539 13.09139976 10.01454648 13.97721051 8.125 16.9375 C4.84236313 20.12358873 2.59831228 20.28062738 -1.96484375 20.22265625 C-4.90092462 19.90143435 -6.70920498 18.81916075 -9 17 C-11.68088358 12.97867463 -11.80264522 9.7248497 -11 5 C-7.90111792 0.53396407 -5.4358027 -0.96636492 0 0 Z " fill="#313140" transform="translate(109,70)"/>
<path d="M0 0 C2.25873185 2.16964034 4.37170009 4.31503738 6 7 C6 8.32 6 9.64 6 11 C5.34 11 4.68 11 4 11 C2.88625 9.8553125 2.88625 9.8553125 1.75 8.6875 C-2.50245337 4.5316933 -6.02285308 2.83134759 -11.9375 2.5625 C-17.69493828 2.76133045 -21.22487836 4.37249121 -25.46875 8.390625 C-30.97519175 14.47332229 -31.41301322 21.18380763 -32 29 C-32.99 28.67 -33.98 28.34 -35 28 C-36.15540447 25.03180576 -36.13452362 22.0945803 -36.125 18.9375 C-36.12757812 18.08027344 -36.13015625 17.22304687 -36.1328125 16.33984375 C-36 14 -36 14 -35 11 C-34.34 11 -33.68 11 -33 11 C-32.87625 10.443125 -32.7525 9.88625 -32.625 9.3125 C-31.18207163 3.97366502 -29.8070314 1.05901998 -25 -2 C-17.13768578 -3.68795447 -6.73204095 -5.09007974 0 0 Z " fill="#30231F" transform="translate(50,52)"/>
<path d="M0 0 C11.19973298 1.74422071 18.31143802 5.85397257 27 13 C27.6084375 13.46148437 28.216875 13.92296875 28.84375 14.3984375 C36.93749689 20.76306574 42.37593136 29.93159683 47 39 C47.53625 39.90363281 48.0725 40.80726562 48.625 41.73828125 C50.33983451 45.80614153 50.3409036 49.02463117 50.1875 53.375 C50.16719727 54.47908203 50.16719727 54.47908203 50.14648438 55.60546875 C50.11144869 57.40396743 50.05765288 59.20208422 50 61 C49.67 61 49.34 61 49 61 C49 58.69 49 56.38 49 54 C48.34 54 47.68 54 47 54 C46.32389577 52.10751181 45.65949561 50.2108398 45 48.3125 C44.62875 47.25675781 44.2575 46.20101562 43.875 45.11328125 C43.0608143 42.21637944 42.82290204 39.98299377 43 37 C42.01 36.67 41.02 36.34 40 36 C40 35.34 40 34.68 40 34 C39.34 34 38.68 34 38 34 C38 32.68 38 31.36 38 30 C37.1028125 29.9071875 37.1028125 29.9071875 36.1875 29.8125 C33.08213967 28.65908045 32.48084246 26.89437389 31 24 C30.4121875 22.8553125 30.4121875 22.8553125 29.8125 21.6875 C29.544375 21.130625 29.27625 20.57375 29 20 C28.34 20 27.68 20 27 20 C27 19.34 27 18.68 27 18 C26.41089844 17.731875 25.82179688 17.46375 25.21484375 17.1875 C22.99074073 15.9950356 21.40977877 14.70649309 19.5625 13 C16.85501566 10.60761082 14.50776832 9.0629601 11 8 C11 7.34 11 6.68 11 6 C10.29875 5.87625 9.5975 5.7525 8.875 5.625 C5.82343613 4.96161655 2.94659062 4.02788045 0 3 C0 2.01 0 1.02 0 0 Z " fill="#E6B958" transform="translate(100,3)"/>
<path d="M0 0 C6.68681023 2.40122171 11.32121838 7.93119768 15.13671875 13.7265625 C16.39631631 17.04369274 16.42461952 20.30901006 16.4375 23.8125 C16.44330078 24.88564453 16.44330078 24.88564453 16.44921875 25.98046875 C16.3187008 31.91903543 15.13978138 34.86021862 11 39 C9.8996601 35.69898029 10.15698681 35.18408361 11 32 C11.14132787 30.02412764 11.22002734 28.04319351 11.25 26.0625 C11.28867188 24.53302734 11.28867188 24.53302734 11.328125 22.97265625 C10.95404061 19.58362983 9.88575472 17.79991501 8 15 C7.566875 13.700625 7.566875 13.700625 7.125 12.375 C5.65204153 9.26542102 4.06910415 8.46147817 1 7 C-6.38702701 4.83091404 -12.34033696 5.66493306 -19.15234375 9.125 C-21 10 -21 10 -23 10 C-19.23749886 -0.15875309 -9.41499479 -0.96026324 0 0 Z " fill="#271A16" transform="translate(120,49)"/>
<path d="M0 0 C0 2.31 0 4.62 0 7 C1.093125 6.938125 2.18625 6.87625 3.3125 6.8125 C7 7 7 7 8.703125 8.109375 C10.6026138 10.87850927 10.43372525 13.11194599 10.4375 16.4375 C10.46650391 18.13712891 10.46650391 18.13712891 10.49609375 19.87109375 C9.90396888 23.60567657 8.96530468 24.73178322 6 27 C1.4643405 28.5118865 -2.91984529 28.40588385 -7.5625 27.5 C-12.22656345 24.62980711 -16.26334996 20.20995012 -18 15 C-18.12781786 12.32605036 -18.04391871 9.67904143 -18 7 C-17.38125 6.9175 -16.7625 6.835 -16.125 6.75 C-13.32494581 5.76174558 -13.25886068 4.59640015 -12 2 C-8.39073335 -0.77635896 -4.34273654 -0.14475788 0 0 Z M-10.875 5.9375 C-13.37218516 9.5363845 -13.67249419 11.55892598 -13.4296875 15.84375 C-12.78787891 19.0644622 -11.39348423 20.81167156 -9 23 C-5.28985899 24.23671367 -1.85561242 24.56368603 2 24 C4.8100346 22.20636089 6.50940468 20.98119065 8 18 C8.19668734 16.08596924 8.19668734 16.08596924 8.1875 14 C8.20167969 13.29875 8.21585938 12.5975 8.23046875 11.875 C8.16512323 9.75475062 8.16512323 9.75475062 6 8 C5.01 7.855625 4.02 7.71125 3 7.5625 C2.01 7.376875 1.02 7.19125 0 7 C-0.66 6.01 -1.32 5.02 -2 4 C-5.93965988 3.29961602 -7.54010344 3.69006971 -10.875 5.9375 Z " fill="#5DC1C4" transform="translate(111,66)"/>
<path d="M0 0 C1.31677734 -0.02126953 1.31677734 -0.02126953 2.66015625 -0.04296875 C4.9375 0.1875 4.9375 0.1875 6.9375 2.1875 C6.26203125 2.22488281 5.5865625 2.26226562 4.890625 2.30078125 C3.99859375 2.36652344 3.1065625 2.43226562 2.1875 2.5 C1.30578125 2.55800781 0.4240625 2.61601563 -0.484375 2.67578125 C-3.39955574 3.25440046 -4.78419878 4.34009488 -7.0625 6.1875 C-7.7225 6.1875 -8.3825 6.1875 -9.0625 6.1875 C-9.35125 6.950625 -9.64 7.71375 -9.9375 8.5 C-11.0625 11.1875 -11.0625 11.1875 -13.0625 14.1875 C-13.74164216 20.79370098 -14.17386984 27.65841643 -10.0625 33.1875 C-6.1293184 36.97104969 -3.12994436 37.83414175 2.25 38.4375 C3.50425781 38.58703125 4.75851563 38.7365625 6.05078125 38.890625 C7.00339844 38.98859375 7.95601562 39.0865625 8.9375 39.1875 C4.00294647 42.47720236 -1.39245628 41.15112812 -7.0625 40.1875 C-12.68374588 37.42618624 -15.6509203 33.30486954 -19.0625 28.1875 C-19.36328125 25.04296875 -19.36328125 25.04296875 -19.375 21.375 C-19.40013672 19.57095703 -19.40013672 19.57095703 -19.42578125 17.73046875 C-18.82300051 11.85173612 -16.5399375 8.1316379 -12.0625 4.375 C-11.381875 3.79105469 -10.70125 3.20710938 -10 2.60546875 C-6.74786259 0.22537625 -3.91029749 0.02879453 0 0 Z " fill="#D0BECA" transform="translate(38.0625,53.8125)"/>
<path d="M0 0 C2.87022573 0.41003225 3.8308033 0.80058961 5.75 3.0625 C8.61620714 5.53062282 10.39817395 5.63123507 14.09375 5.47265625 C16.34048012 5.08964437 16.34048012 5.08964437 18.5 2.5 C18.995 1.675 19.49 0.85 20 0 C21.875 0.3125 21.875 0.3125 24 1 C26 4 26 4 25.625 6.1875 C25.41875 6.785625 25.2125 7.38375 25 8 C24.01 8 23.02 8 22 8 C22 8.66 22 9.32 22 10 C21.30132812 10.06058594 20.60265625 10.12117188 19.8828125 10.18359375 C18.97273438 10.26738281 18.06265625 10.35117188 17.125 10.4375 C16.22007813 10.51871094 15.31515625 10.59992188 14.3828125 10.68359375 C11.98889139 10.86989285 11.98889139 10.86989285 10 12 C4.46153846 12.23076923 4.46153846 12.23076923 2 11 C2 10.34 2 9.68 2 9 C-0.97 8.505 -0.97 8.505 -4 8 C-3.40072174 4.64404172 -2.15377564 2.62198774 0 0 Z " fill="#CB5426" transform="translate(64,106)"/>
<path d="M0 0 C5.94562221 4.27695984 11.88255738 8.74040619 17 14 C17 14.66 17 15.32 17 16 C17.78375 16.28875 18.5675 16.5775 19.375 16.875 C22 18 22 18 24 20 C23.625 22.125 23.625 22.125 23 24 C22.34 24 21.68 24 21 24 C20.67 24.99 20.34 25.98 20 27 C18.68103535 26.07161713 17.37001311 25.13194268 16.0625 24.1875 C15.33160156 23.66542969 14.60070312 23.14335938 13.84765625 22.60546875 C12 21 12 21 11 18 C10.01 17.67 9.02 17.34 8 17 C2.79204384 11.80341492 0.13395599 7.36757936 0 0 Z " fill="#FCCD5A" transform="translate(16,88)"/>
<path d="M0 0 C1.1240625 0.05542969 2.248125 0.11085938 3.40625 0.16796875 C7.04038657 0.92508053 8.08614459 2.0890414 10.5 4.8125 C13.63350717 6.08034124 13.63350717 6.08034124 16.5 6.8125 C15.58080808 12.59027778 15.58080808 12.59027778 14.75 14.875 C14.37263493 17.79957927 15.97151576 19.39239995 17.5 21.8125 C17.17 22.4725 16.84 23.1325 16.5 23.8125 C14.16118993 21.68630903 12.55961238 19.81473508 11.5 16.8125 C11.83947242 13.41777583 12.85043857 10.78171058 14.5 7.8125 C13.736875 7.709375 12.97375 7.60625 12.1875 7.5 C9.25657342 6.75022808 8.48482838 5.97776733 6.5 3.8125 C5.51 3.4825 4.52 3.1525 3.5 2.8125 C3.4175 3.76125 3.335 4.71 3.25 5.6875 C2.5 8.8125 2.5 8.8125 0.6875 10.25 C-1.97212979 10.9339048 -3.04107363 11.08162329 -5.5 9.8125 C-7.25 6.75 -7.25 6.75 -8.5 3.8125 C-10.99361571 5.01631448 -13.18143083 6.26678722 -15.5 7.8125 C-16.82 7.8125 -18.14 7.8125 -19.5 7.8125 C-19.83 8.8025 -20.16 9.7925 -20.5 10.8125 C-20.5 9.4925 -20.5 8.1725 -20.5 6.8125 C-19.94570313 6.54695313 -19.39140625 6.28140625 -18.8203125 6.0078125 C-18.09585938 5.65460938 -17.37140625 5.30140625 -16.625 4.9375 C-15.90570313 4.58945313 -15.18640625 4.24140625 -14.4453125 3.8828125 C-12.34864981 2.84692457 -12.34864981 2.84692457 -10.5 0.8125 C-7.00625816 -0.48177254 -3.67902802 -0.22361065 0 0 Z " fill="#F5A03E" transform="translate(77.5,91.1875)"/>
<path d="M0 0 C1.42505859 0.00580078 1.42505859 0.00580078 2.87890625 0.01171875 C5.4375 0.3125 5.4375 0.3125 8.4375 2.3125 C8.625 5.9375 8.625 5.9375 8.4375 9.3125 C5.17270707 11.24976484 2.65170339 11.60958488 -1.125 11.625 C-2.07503906 11.64175781 -3.02507813 11.65851562 -4.00390625 11.67578125 C-6.5625 11.3125 -6.5625 11.3125 -8.375 9.94921875 C-9.5625 8.3125 -9.5625 8.3125 -10 5.8125 C-9.5625 3.3125 -9.5625 3.3125 -7.8828125 1.67578125 C-5.04837719 0.01043121 -3.2674114 -0.05779095 0 0 Z " fill="#DB542E" transform="translate(47.5625,28.6875)"/>
<path d="M0 0 C0.3526999 4.49692378 0.5147987 7.94895266 -1.5 12.0625 C-4.56834413 14.4404667 -6.31149892 14.56012857 -10.09765625 14.28515625 C-12.56310951 13.91559139 -14.09997784 13.67201951 -16 12 C-16.75 8.875 -16.75 8.875 -17 6 C-16.31292969 5.81824219 -15.62585938 5.63648437 -14.91796875 5.44921875 C-14.01691406 5.19785156 -13.11585937 4.94648437 -12.1875 4.6875 C-11.29417969 4.44386719 -10.40085937 4.20023437 -9.48046875 3.94921875 C-6.95991222 3.18212481 -6.95991222 3.18212481 -5.42578125 1.39453125 C-4 0 -4 0 0 0 Z " fill="#0A0D10" transform="translate(117,76)"/>
<path d="M0 0 C0.99 0 1.98 0 3 0 C2.67 1.32 2.34 2.64 2 4 C1.34 4 0.68 4 0 4 C-0.226875 4.721875 -0.45375 5.44375 -0.6875 6.1875 C-2.27331875 9.58568303 -4.26123324 11.45230999 -7 14 C-8.11375 15.175625 -8.11375 15.175625 -9.25 16.375 C-18.75259171 25.44565572 -30.44983779 33.76637651 -44 34 C-44 33.34 -44 32.68 -44 32 C-42.25014646 31.52029877 -40.50011109 31.04126076 -38.75 30.5625 C-37.77546875 30.29566406 -36.8009375 30.02882812 -35.796875 29.75390625 C-33.53627347 29.14455416 -31.27377991 28.55761745 -29 28 C-29 27.34 -29 26.68 -29 26 C-27 25 -25 24 -23 23 C-21.9275 22.443125 -20.855 21.88625 -19.75 21.3125 C-17 20 -17 20 -15 20 C-14.896875 19.236875 -14.79375 18.47375 -14.6875 17.6875 C-13.94460116 14.78344089 -13.43006017 13.71004234 -11 12 C-9.68 12 -8.36 12 -7 12 C-6.89429688 11.42765625 -6.78859375 10.8553125 -6.6796875 10.265625 C-5.89398652 7.64662173 -4.75466868 5.93910718 -3.125 3.75 C-2.35542969 2.69039063 -2.35542969 2.69039063 -1.5703125 1.609375 C-1.05210937 1.07828125 -0.53390625 0.5471875 0 0 Z " fill="#C0824C" transform="translate(139,116)"/>
<path d="M0 0 C4.49989977 0.08211496 6.78708423 1.60466739 10.25 4.375 C9.375 10.25 9.375 10.25 8.25 11.375 C3.25063575 11.939743 -0.56903393 12.13081828 -4.875 9.375 C-5.49375 8.715 -6.1125 8.055 -6.75 7.375 C-5.94703138 2.2895321 -5.51711709 0.55171171 0 0 Z " fill="#DD542F" transform="translate(101.75,28.625)"/>
<path d="M0 0 C0.99 0.33 1.98 0.66 3 1 C3 1.66 3 2.32 3 3 C3.66 3 4.32 3 5 3 C5.33 3.66 5.66 4.32 6 5 C7.82209972 5.75707473 7.82209972 5.75707473 9.9375 6.375 C13.85213888 7.73540642 13.85213888 7.73540642 15.1875 10.125 C15.455625 10.74375 15.72375 11.3625 16 12 C18.47608101 12.74524194 18.47608101 12.74524194 21 13 C21.66 13.33 22.32 13.66 23 14 C23 14.66 23 15.32 23 16 C24.670625 15.9690625 24.670625 15.9690625 26.375 15.9375 C30 16 30 16 32 17 C32 17.66 32 18.32 32 19 C32.78375 18.484375 33.5675 17.96875 34.375 17.4375 C35.24125 16.963125 36.1075 16.48875 37 16 C37.66 16.33 38.32 16.66 39 17 C39 17.99 39 18.98 39 20 C40.98 19.67 42.96 19.34 45 19 C45 19.66 45 20.32 45 21 C27.87386004 22.6397368 16.575566 16.11711264 3.16015625 6.078125 C0.96736037 3.96859985 0.31498446 2.97559784 0 0 Z " fill="#B78155" transform="translate(22,129)"/>
<path d="M0 0 C6.54670491 0.1666985 12.10711336 1.36923229 17 6 C17.86328125 7.96484375 17.86328125 7.96484375 18 10 C15.6875 13.25 15.6875 13.25 13 16 C12.34 16 11.68 16 11 16 C11 20.62 11 25.24 11 30 C10.67 30 10.34 30 10 30 C9.93683594 28.73285156 9.87367187 27.46570313 9.80859375 26.16015625 C9.14340419 16.19615039 8.52117924 9.21957807 1 2 C0.67 1.34 0.34 0.68 0 0 Z " fill="#F3C55B" transform="translate(49,51)"/>
<path d="M0 0 C0.66 0.33 1.32 0.66 2 1 C0.02 3.31 -1.96 5.62 -4 8 C-2.68 7.67 -1.36 7.34 0 7 C-0.598125 7.804375 -1.19625 8.60875 -1.8125 9.4375 C-5.97157514 15.72791613 -7.84506165 22.51516825 -7 30 C-5.22765132 34.45359412 -2.42079219 37.70137896 1 41 C1 41.66 1 42.32 1 43 C6.28 43.33 11.56 43.66 17 44 C17 44.33 17 44.66 17 45 C14.45651575 45.13593443 11.92038504 45.23448907 9.375 45.3125 C8.66214844 45.35439453 7.94929688 45.39628906 7.21484375 45.43945312 C3.0998926 45.53383274 1.30915414 45.19663384 -2.2734375 42.91796875 C-8.40251834 36.35862292 -9.64003824 31.75487879 -9.4375 23 C-9.44458984 22.13632813 -9.45167969 21.27265625 -9.45898438 20.3828125 C-9.39603546 14.01044564 -8.49602924 9.10333563 -4.39453125 4.00390625 C-2.9296875 2.66927083 -1.46484375 1.33463542 0 0 Z " fill="#BEB78D" transform="translate(101,51)"/>
<path d="M0 0 C3.40184106 -0.47625775 5.92712571 -0.78196478 8.80078125 1.3125 C11.65134352 4.36035656 12.89451336 6.39872615 13.625 10.5625 C12.89475316 14.57885765 11.55524326 16.84352303 9 20 C6.59454362 21.20272819 5.05003047 21.10071472 2.375 21.0625 C1.14910156 21.04896484 1.14910156 21.04896484 -0.1015625 21.03515625 C-0.72804688 21.02355469 -1.35453125 21.01195313 -2 21 C-2 20.67 -2 20.34 -2 20 C-1.30132812 19.89042969 -0.60265625 19.78085938 0.1171875 19.66796875 C1.02726562 19.50941406 1.93734375 19.35085937 2.875 19.1875 C3.77992187 19.03667969 4.68484375 18.88585937 5.6171875 18.73046875 C8.34412478 18.16948699 8.34412478 18.16948699 10 15 C10.16699232 11.87478167 10.16699232 11.87478167 10 9 C9.21625 9.20625 8.4325 9.4125 7.625 9.625 C6.75875 9.74875 5.8925 9.8725 5 10 C4.34 9.34 3.68 8.68 3 8 C3.38878188 4.98694043 4.26456874 3.60314689 6 1 C4.35 1 2.7 1 1 1 C1.45822468 4.46941546 1.89131683 7.67395049 3 11 C-0.33333333 9.66666667 -3.66666667 8.33333333 -7 7 C-7 9.64 -7 12.28 -7 15 C-7.33 15 -7.66 15 -8 15 C-8 12.03 -8 9.06 -8 6 C-5.69 5.34 -3.38 4.68 -1 4 C-0.67 2.68 -0.34 1.36 0 0 Z " fill="#4B4555" transform="translate(40,69)"/>
<path d="M0 0 C0.66 0.33 1.32 0.66 2 1 C0.625 2.5 0.625 2.5 -1 4 C-1.66 4 -2.32 4 -3 4 C-3.226875 4.78375 -3.45375 5.5675 -3.6875 6.375 C-5 9 -5 9 -7.5625 10 C-8.366875 10.33 -9.17125 10.66 -10 11 C-10.34274406 12.66475686 -10.67364302 14.33195323 -11 16 C-11.91070657 17.32567684 -12.87593875 18.61457064 -13.875 19.875 C-17.38407723 24.3265632 -19.20742193 28.6222658 -21 34 C-21.66 34 -22.32 34 -23 34 C-23.04898437 34.59167969 -23.09796875 35.18335938 -23.1484375 35.79296875 C-23.56456867 40.19104472 -24.04965595 43.96928897 -26 48 C-26.33 48 -26.66 48 -27 48 C-27.95389777 35.54633464 -22.88211131 27.04334486 -16 17 C-15.52691406 16.2884375 -15.05382813 15.576875 -14.56640625 14.84375 C-10.50572155 9.04605853 -5.36193484 4.57777836 0 0 Z " fill="#C89A63" transform="translate(27,12)"/>
<path d="M0 0 C3.16667398 1.35617729 4.82263874 2.7015784 6.8125 5.5 C7.32167969 6.21285156 7.83085937 6.92570312 8.35546875 7.66015625 C8.89816406 8.43230469 9.44085938 9.20445313 10 10 C10.89138672 11.20462891 10.89138672 11.20462891 11.80078125 12.43359375 C19.95800847 23.63013046 21.601206 31.38936422 21 45 C20.67 45 20.34 45 20 45 C20 42.69 20 40.38 20 38 C19.34 38 18.68 38 18 38 C17.32389577 36.10751181 16.65949561 34.2108398 16 32.3125 C15.62875 31.25675781 15.2575 30.20101562 14.875 29.11328125 C14.0608143 26.21637944 13.82290204 23.98299377 14 21 C13.34 21 12.68 21 12 21 C11.71125 19.865625 11.4225 18.73125 11.125 17.5625 C10.75375 16.386875 10.3825 15.21125 10 14 C9.34 13.67 8.68 13.34 8 13 C7.5 11 7.5 11 7 9 C6.34 8.67 5.68 8.34 5 8 C5 7.34 5 6.68 5 6 C4.01 6 3.02 6 2 6 C1.34 4.02 0.68 2.04 0 0 Z " fill="#E8BB59" transform="translate(129,19)"/>
<path d="M0 0 C1.670625 0.061875 1.670625 0.061875 3.375 0.125 C3.375 0.455 3.375 0.785 3.375 1.125 C1.395 1.455 -0.585 1.785 -2.625 2.125 C-3.08944522 6.8623412 -3.29029126 10.07341058 -0.6875 14.1875 C3.39333471 16.76925257 6.6615958 17.10292124 11.375 16.125 C13.87660818 14.24879387 14.99445652 12.88608697 16.375 10.125 C16.44450541 8.58476004 16.45952357 7.04165012 16.4375 5.5 C16.42847656 4.68273437 16.41945313 3.86546875 16.41015625 3.0234375 C16.39855469 2.39695312 16.38695313 1.77046875 16.375 1.125 C17.035 1.455 17.695 1.785 18.375 2.125 C18.82421875 4.5234375 18.82421875 4.5234375 19.0625 7.5 C19.14886719 8.47710937 19.23523438 9.45421875 19.32421875 10.4609375 C19.39035446 13.9305186 18.77719262 15.63959511 16.5625 18.3125 C11.6472276 21.10745881 6.89818421 20.86703444 1.375 20.125 C-2.5462783 18.16436085 -3.3311259 16.86668225 -4.9375 12.8125 C-5.62735943 9.11234487 -5.91928329 5.87711199 -5.625 2.125 C-3.625 0.125 -3.625 0.125 0 0 Z " fill="#6AC9CE" transform="translate(35.625,72.875)"/>
<path d="M0 0 C3.96098041 3.96098041 3.04857144 11.29707171 3.1875 16.6875 C3.12146043 20.82597962 2.56989113 24.15376672 1 28 C-1.0625 29.1875 -1.0625 29.1875 -3 30 C-3.74276031 31.97080157 -3.74276031 31.97080157 -4 34 C-4.33 34.66 -4.66 35.32 -5 36 C-8.6481213 37.01626236 -12.22642535 37.1922412 -16 37.25 C-17.010625 37.27578125 -18.02125 37.3015625 -19.0625 37.328125 C-22.43942842 36.95091491 -24.28014341 36.00103735 -27 34 C-27.33 33.34 -27.66 32.68 -28 32 C-27.07380859 32.23396484 -27.07380859 32.23396484 -26.12890625 32.47265625 C-17.91651788 34.36013059 -11.41786856 34.88302845 -3.9375 30.5 C-0.82027854 27.89869498 0.23742069 25.91424824 0.6328125 21.96484375 C0.86482672 15.28516176 0.4332034 9.28660308 -2 3 C-1.34 3 -0.68 3 0 3 C0 2.01 0 1.02 0 0 Z " fill="#BEBA8A" transform="translate(56,60)"/>
<path d="M0 0 C4.0228896 3.75469696 5.80544664 6.08928118 6.37109375 11.64453125 C6.41092916 13.03345936 6.43239158 14.42301015 6.4375 15.8125 C6.44136719 16.52792969 6.44523438 17.24335937 6.44921875 17.98046875 C6.3187008 23.91903543 5.13978138 26.86021862 1 31 C-0.1003399 27.69898029 0.15698681 27.18408361 1 24 C1.14132787 22.02412764 1.22002734 20.04319351 1.25 18.0625 C1.27578125 17.04285156 1.3015625 16.02320312 1.328125 14.97265625 C0.95504247 11.59270618 -0.18253543 9.82663569 -2 7 C-2 6.01 -2 5.02 -2 4 C-1.34 4 -0.68 4 0 4 C0 2.68 0 1.36 0 0 Z " fill="#291810" transform="translate(130,57)"/>
<path d="M0 0 C0 0.99 0 1.98 0 3 C-4.34877842 5.45625448 -8.69341779 7.88065351 -13.1875 10.0625 C-16.6791755 11.7768497 -19.81472026 13.77030418 -23 16 C-23.33 15.34 -23.66 14.68 -24 14 C-17.44636999 5.74652221 -10.98494478 -0.24410988 0 0 Z " fill="#E5B958" transform="translate(47,4)"/>
<path d="M0 0 C0.79067347 2.29040251 1.11394041 3.61012227 0.42578125 5.96484375 C-2.82179129 11.71931439 -6.71727777 13.9122614 -12.85546875 16.16015625 C-18.96622256 17.79222093 -24.39854665 18.16991337 -30 15 C-29.13117188 14.97421875 -28.26234375 14.9484375 -27.3671875 14.921875 C-18.4329858 14.59295935 -18.4329858 14.59295935 -11 10 C-9.61423077 8.37667033 -8.27358732 6.71275535 -7 5 C-6.01769502 3.9826127 -5.02530403 2.97403883 -4 2 C-4 3.32 -4 4.64 -4 6 C-2.68 4.02 -1.36 2.04 0 0 Z " fill="#C6903B" transform="translate(135,81)"/>
<path d="M0 0 C1.44246094 -0.02126953 1.44246094 -0.02126953 2.9140625 -0.04296875 C5.375 0.1875 5.375 0.1875 7.375 2.1875 C5.62123047 2.33445313 5.62123047 2.33445313 3.83203125 2.484375 C2.28376596 2.63450982 0.7355933 2.78560205 -0.8125 2.9375 C-1.96588867 3.0303125 -1.96588867 3.0303125 -3.14257812 3.125 C-8.07624181 3.63318853 -11.08604132 4.43405898 -14.625 8.1875 C-15.82127318 10.26763896 -15.82127318 10.26763896 -16.4375 12.4375 C-16.829375 13.675 -17.22125 14.9125 -17.625 16.1875 C-18.285 16.1875 -18.945 16.1875 -19.625 16.1875 C-19.955 20.4775 -20.285 24.7675 -20.625 29.1875 C-21.285 29.1875 -21.945 29.1875 -22.625 29.1875 C-23.17981927 20.079217 -22.5912323 13.04933315 -16.6875 5.8125 C-11.19446486 1.48465413 -6.93569772 0.04673651 0 0 Z " fill="#D9A13F" transform="translate(34.625,46.8125)"/>
<path d="M0 0 C2.61161551 3.48215401 4.63184887 6.80674654 6.6875 10.625 C7.31011719 11.77226562 7.93273437 12.91953125 8.57421875 14.1015625 C10 17 10 17 10 19 C6.7 19 3.4 19 0 19 C0 12.73 0 6.46 0 0 Z " fill="#FFFFFF" transform="translate(0,131)"/>
<path d="M0 0 C3.61724779 4.82299706 3.71643086 7.21344303 3 13 C2.18970475 16.08284745 1.17611644 19.03870682 0 22 C-0.99 22 -1.98 22 -3 22 C-3.01417969 21.24074219 -3.02835937 20.48148438 -3.04296875 19.69921875 C-3.18590111 16.7208174 -3.38664987 13.91989218 -4 11 C-6.38987933 8.8613923 -6.38987933 8.8613923 -9 8 C-9 7.34 -9 6.68 -9 6 C-7.02 5.67 -5.04 5.34 -3 5 C-2.01 6.65 -1.02 8.3 0 10 C0 6.7 0 3.4 0 0 Z " fill="#DCEDF1" transform="translate(124,65)"/>
<path d="M0 0 C2.96558324 2.75557412 4.94101091 5.39185333 6.875 8.9375 C8.74965938 12.19424245 10.37381712 14.60287805 13.375 16.875 C14.24125 17.57625 15.1075 18.2775 16 19 C16 20.32 16 21.64 16 23 C12.36449325 22.89307333 10.43619964 21.80611621 8 19.25 C4.01660383 14.30687367 0 6.4456771 0 0 Z " fill="#FBF8F5" transform="translate(5,108)"/>
<path d="M0 0 C4.41244536 0.50427947 6.74974317 2.01327751 10 5 C12 8 12 8 12 11 C12.99 11 13.98 11 15 11 C15 11.66 15 12.32 15 13 C15.99 13.33 16.98 13.66 18 14 C18 15.32 18 16.64 18 18 C18.99 18.33 19.98 18.66 21 19 C21.33 20.98 21.66 22.96 22 25 C21.67 24.34 21.34 23.68 21 23 C20.34 23 19.68 23 19 23 C19 21.68 19 20.36 19 19 C18.1028125 18.9071875 18.1028125 18.9071875 17.1875 18.8125 C14.08213967 17.65908045 13.48084246 15.89437389 12 13 C11.608125 12.236875 11.21625 11.47375 10.8125 10.6875 C10.544375 10.130625 10.27625 9.57375 10 9 C9.34 9 8.68 9 8 9 C8 8.34 8 7.68 8 7 C7.4225 6.7525 6.845 6.505 6.25 6.25 C3.68684812 4.82602673 1.95895126 3.16883889 0 1 C0 0.67 0 0.34 0 0 Z " fill="#E7BB58" transform="translate(119,14)"/>
<path d="M0 0 C4.3204471 3.74438749 5.75781833 7.03433674 6.22265625 12.7265625 C6.45404646 20.35237888 6.45404646 20.35237888 4.75390625 22.77734375 C1.50866126 25.03961921 -2.12938529 25.11543939 -6 25 C-9 23.8125 -9 23.8125 -11 22 C-11.8125 19.8125 -11.8125 19.8125 -12 18 C-10.948125 18.99 -10.948125 18.99 -9.875 20 C-6.49736169 22.34966143 -5.02695637 22.68543938 -1 22 C1.57955419 20.75609295 1.57955419 20.75609295 3 18 C3.63778608 13.68598627 4.15523181 9.56000612 1.47265625 5.9375 C0.98667969 5.298125 0.50070313 4.65875 0 4 C0 2.68 0 1.36 0 0 Z " fill="#DB6D2F" transform="translate(95,115)"/>
<path d="M0 0 C0.66 0 1.32 0 2 0 C2.13277344 0.99902344 2.26554688 1.99804688 2.40234375 3.02734375 C2.57894531 4.31769531 2.75554687 5.60804687 2.9375 6.9375 C3.11152344 8.22527344 3.28554688 9.51304688 3.46484375 10.83984375 C3.66162423 13.85466313 3.66162423 13.85466313 5 15 C5.04080783 16.99958364 5.04254356 19.00045254 5 21 C4.01 21.33 3.02 21.66 2 22 C2 22.66 2 23.32 2 24 C1.34 24 0.68 24 0 24 C0 16.08 0 8.16 0 0 Z " fill="#DB9B37" transform="translate(0,70)"/>
<path d="M0 0 C0.66 0 1.32 0 2 0 C2.33 0.99 2.66 1.98 3 3 C3.66 3.433125 4.32 3.86625 5 4.3125 C7.72514939 6.6118448 7.69281994 8.54422433 8 12 C9.32 12.33 10.64 12.66 12 13 C12.33 14.65 12.66 16.3 13 18 C13.639375 18.12375 14.27875 18.2475 14.9375 18.375 C15.9584375 18.684375 15.9584375 18.684375 17 19 C18.35439668 21.70879335 18.06501451 24.00933268 18 27 C17.73574219 26.3915625 17.47148437 25.783125 17.19921875 25.15625 C15.92851499 22.8714667 14.91154497 21.99863165 12.8125 20.5 C8.45230765 16.96076437 6.13273016 12.48905045 3.48046875 7.609375 C2.12094054 4.9435562 2.12094054 4.9435562 0 3 C0 2.01 0 1.02 0 0 Z " fill="#E2C09E" transform="translate(4,104)"/>
<path d="M0 0 C1.42505859 0.00580078 1.42505859 0.00580078 2.87890625 0.01171875 C5.4375 0.3125 5.4375 0.3125 8.4375 2.3125 C8.625 5.9375 8.625 5.9375 8.4375 9.3125 C5.08810119 11.33808881 2.56787449 11.52988987 -1.3125 11.4375 C-2.29734375 11.41945313 -3.2821875 11.40140625 -4.296875 11.3828125 C-5.41835938 11.34800781 -5.41835938 11.34800781 -6.5625 11.3125 C-6.5625 10.9825 -6.5625 10.6525 -6.5625 10.3125 C-5.86382812 10.25191406 -5.16515625 10.19132812 -4.4453125 10.12890625 C-3.08019531 10.00322266 -3.08019531 10.00322266 -1.6875 9.875 C-0.78257813 9.79378906 0.12234375 9.71257813 1.0546875 9.62890625 C3.44860861 9.44260715 3.44860861 9.44260715 5.4375 8.3125 C5.1075 6.6625 4.7775 5.0125 4.4375 3.3125 C-0.92340593 2.77576107 -0.92340593 2.77576107 -5.5625 4.8125 C-6.0575 5.555 -6.0575 5.555 -6.5625 6.3125 C-6.5625 5.6525 -6.5625 4.9925 -6.5625 4.3125 C-7.2225 4.3125 -7.8825 4.3125 -8.5625 4.3125 C-8.8925 5.6325 -9.2225 6.9525 -9.5625 8.3125 C-9.8125 6 -9.8125 6 -9.5625 3.3125 C-6.51194916 0.2976699 -4.20874424 -0.07444037 0 0 Z " fill="#E07D33" transform="translate(47.5625,28.6875)"/>
<path d="M0 0 C4.27937006 0.47548556 6.06417851 3.06417851 9 6 C13.57515774 8.61437585 18.84288691 8.61947515 24 9 C19.07163842 12.28557439 13.66327571 10.97522583 8 10 C4.35504961 8.49551766 1.62449099 5.9161011 -1 3 C-0.67 2.01 -0.34 1.02 0 0 Z " fill="#C5C6CF" transform="translate(23,84)"/>
<path d="M0 0 C3.31225448 1.65612724 3.76982575 4.64497931 5 8 C5.1875 10.9375 5.1875 10.9375 5 13 C2.36 13 -0.28 13 -3 13 C-2.69128878 11.20767663 -2.37790936 9.41615679 -2.0625 7.625 C-1.88847656 6.62726563 -1.71445313 5.62953125 -1.53515625 4.6015625 C-1 2 -1 2 0 0 Z " fill="#F9BC43" transform="translate(75,121)"/>
<path d="M0 0 C0.33 1.65 0.66 3.3 1 5 C-0.32 5.33 -1.64 5.66 -3 6 C-3 6.66 -3 7.32 -3 8 C-7.455 8.495 -7.455 8.495 -12 9 C-11.67 7.68 -11.34 6.36 -11 5 C-9.68 5 -8.36 5 -7 5 C-6.566875 4.0409375 -6.566875 4.0409375 -6.125 3.0625 C-4.45129782 -0.005954 -3.47574769 0 0 0 Z " fill="#C54924" transform="translate(89,108)"/>
<path d="M0 0 C8.19256018 -0.63019694 8.19256018 -0.63019694 11.5625 2 C12.036875 2.66 12.51125 3.32 13 4 C12.67 4.66 12.34 5.32 12 6 C11.484375 5.360625 10.96875 4.72125 10.4375 4.0625 C7.34064377 1.44208319 4.97932377 1.30610183 1 1 C1 2.32 1 3.64 1 5 C-1.05078125 5.22786458 -3.1015625 5.45572917 -5.15234375 5.68359375 C-7.01140229 5.81886614 -7.01140229 5.81886614 -8 7 C-8.17548271 11.47480899 -7.85690932 15.60833973 -7 20 C-9.44580845 18.24207518 -10.84370558 16.8966364 -11.37109375 13.87109375 C-11.47586416 10.13017369 -11.41608268 7.71080791 -9.5 4.4375 C-9.005 3.963125 -8.51 3.48875 -8 3 C-5.36 3.33 -2.72 3.66 0 4 C0 2.68 0 1.36 0 0 Z " fill="#80C0C0" transform="translate(39,68)"/>
<path d="M0 0 C0.33 0 0.66 0 1 0 C1.00257812 0.70125 1.00515625 1.4025 1.0078125 2.125 C1.31233871 9.59604313 3.02611033 13.51755801 8 19 C8.78375 19.99 9.5675 20.98 10.375 22 C10.91125 22.66 11.4475 23.32 12 24 C6.42460876 22.35272532 3.18658797 21.07652895 0.25 15.9375 C-1 13 -1 13 -1 11 C-1.66 11 -2.32 11 -3 11 C-2.67 10.34 -2.34 9.68 -2 9 C-1.34 9.33 -0.68 9.66 0 10 C0 6.7 0 3.4 0 0 Z " fill="#9D7A64" transform="translate(18,71)"/>
<path d="M0 0 C6.0749653 0.99183107 8.724166 3.3162886 12.71484375 7.9296875 C14 10 14 10 14 14 C13.34 14 12.68 14 12 14 C10.88625 12.8553125 10.88625 12.8553125 9.75 11.6875 C6.97304795 8.97366049 4.52594801 7.55797703 1 6 C1.99 5.34 2.98 4.68 4 4 C4 3.34 4 2.68 4 2 C2.68 1.67 1.36 1.34 0 1 C0 0.67 0 0.34 0 0 Z " fill="#816342" transform="translate(42,49)"/>
<path d="M0 0 C0.53625 0.2475 1.0725 0.495 1.625 0.75 C0.4803125 1.3378125 0.4803125 1.3378125 -0.6875 1.9375 C-3.62216071 3.91668978 -4.77626898 5.6366817 -6.375 8.75 C-5.1375 8.440625 -3.9 8.13125 -2.625 7.8125 C0.125 7.125 2.875 6.4375 5.625 5.75 C3.36535542 9.13946688 2.41770862 9.60336716 -1.375 10.75 C-4.1875 10.875 -4.1875 10.875 -6.375 10.75 C-6.045 12.4 -5.715 14.05 -5.375 15.75 C-7.33905761 14.11066658 -8.27949533 13.15200802 -8.87890625 10.62890625 C-8.94016387 8.20718848 -8.90826502 6.11769669 -8.375 3.75 C-5.57064812 1.07311866 -3.95948562 -0.41678796 0 0 Z " fill="#252835" transform="translate(106.375,71.25)"/>
<path d="M0 0 C0 0.66 0 1.32 0 2 C-0.90492187 2.14695312 -0.90492187 2.14695312 -1.828125 2.296875 C-6.80569116 3.22816157 -9.64549451 3.97459341 -13 8 C-13.66 8 -14.32 8 -15 8 C-15.33 11.3 -15.66 14.6 -16 18 C-18.67927341 13.98108988 -18.15601248 11.75838077 -18 7 C-17.38125 6.9175 -16.7625 6.835 -16.125 6.75 C-13.32494581 5.76174558 -13.25886068 4.59640015 -12 2 C-8.39073335 -0.77635896 -4.34273654 -0.14475788 0 0 Z " fill="#7BE0D7" transform="translate(111,66)"/>
<path d="M0 0 C0 3 0 3 -1 5 C-4.6481213 6.01626236 -8.22642535 6.1922412 -12 6.25 C-13.010625 6.27578125 -14.02125 6.3015625 -15.0625 6.328125 C-18.43942842 5.95091491 -20.28014341 5.00103735 -23 3 C-23.33 2.34 -23.66 1.68 -24 1 C-23.07380859 1.23396484 -23.07380859 1.23396484 -22.12890625 1.47265625 C-14.31344669 3.26890342 -7.37861821 3.57029913 0 0 Z " fill="#D2AF7B" transform="translate(52,91)"/>
<path d="M0 0 C2.0703125 0.36328125 2.0703125 0.36328125 6.0703125 3.36328125 C2.1103125 3.36328125 -1.8496875 3.36328125 -5.9296875 3.36328125 C-4.9396875 5.34328125 -3.9496875 7.32328125 -2.9296875 9.36328125 C-1.0115625 9.39421875 -1.0115625 9.39421875 0.9453125 9.42578125 C1.66460937 9.43738281 2.38390625 9.44898438 3.125 9.4609375 C5.15216654 9.48977367 5.15216654 9.48977367 7.0703125 8.36328125 C6.7403125 9.35328125 6.4103125 10.34328125 6.0703125 11.36328125 C-2.94500479 11.99347819 -2.94500479 11.99347819 -7.0546875 9.36328125 C-7.6734375 8.70328125 -8.2921875 8.04328125 -8.9296875 7.36328125 C-7.93486973 1.06276868 -6.42407725 0.15876997 0 0 Z " fill="#DC7138" transform="translate(103.9296875,28.63671875)"/>
<path d="M0 0 C0.66 0 1.32 0 2 0 C1.00449135 2.6245228 0.06036546 3.95028727 -2.125 5.75 C-6.81303013 7.78827397 -11.00225836 7.56457916 -15.875 6.1875 C-18 5 -18 5 -20 2 C-18.93652344 2.24363281 -18.93652344 2.24363281 -17.8515625 2.4921875 C-14.9628238 3.00662042 -12.30622248 3.13307499 -9.375 3.125 C-8.43398437 3.12757812 -7.49296875 3.13015625 -6.5234375 3.1328125 C-3.87322493 3.10547998 -3.87322493 3.10547998 -1 2 C-0.67 1.34 -0.34 0.68 0 0 Z " fill="#83D8E0" transform="translate(119,87)"/>
<path d="M0 0 C1.670625 0.061875 1.670625 0.061875 3.375 0.125 C3.375 0.455 3.375 0.785 3.375 1.125 C1.395 1.455 -0.585 1.785 -2.625 2.125 C-3.09376528 6.90640589 -3.35521149 10.06287419 -0.5625 14.125 C2.8402622 16.44177426 5.301583 16.88538724 9.375 17.125 C9.375 17.455 9.375 17.785 9.375 18.125 C7.95876784 18.17947047 6.54191809 18.21800508 5.125 18.25 C3.94164062 18.28480469 3.94164062 18.28480469 2.734375 18.3203125 C0.09861856 18.10212074 -1.4304395 17.59285297 -3.625 16.125 C-5.47151872 11.41637727 -6.01997732 7.16096078 -5.625 2.125 C-3.625 0.125 -3.625 0.125 0 0 Z " fill="#55A5AC" transform="translate(35.625,72.875)"/>
<path d="M0 0 C0.66 0.33 1.32 0.66 2 1 C0.02 3.31 -1.96 5.62 -4 8 C-2.68 7.67 -1.36 7.34 0 7 C-0.763125 7.66 -1.52625 8.32 -2.3125 9 C-5.56776694 12.20902735 -6.61456414 15.69785705 -8 20 C-8.33 20 -8.66 20 -9 20 C-9.37640013 13.85213124 -8.6075738 9.01231172 -4.46484375 4.2265625 C-3.02086131 2.77233905 -1.51487485 1.38021931 0 0 Z " fill="#836341" transform="translate(101,51)"/>
<path d="M0 0 C6.75 -0.125 6.75 -0.125 9 1 C9 1.66 9 2.32 9 3 C9.78375 2.484375 10.5675 1.96875 11.375 1.4375 C12.24125 0.963125 13.1075 0.48875 14 0 C14.66 0.33 15.32 0.66 16 1 C16 1.99 16 2.98 16 4 C17.98 3.67 19.96 3.34 22 3 C22 3.66 22 4.32 22 5 C17.05 5 12.1 5 7 5 C7 4.01 7 3.02 7 2 C4.69 1.67 2.38 1.34 0 1 C0 0.67 0 0.34 0 0 Z " fill="#C48644" transform="translate(45,145)"/>
<path d="M0 0 C0.33 0 0.66 0 1 0 C0.97679687 0.75925781 0.95359375 1.51851563 0.9296875 2.30078125 C0.91164062 3.29464844 0.89359375 4.28851563 0.875 5.3125 C0.85179687 6.29863281 0.82859375 7.28476563 0.8046875 8.30078125 C0.79317361 11.22406527 0.79317361 11.22406527 3 14 C7.00712824 15.23980421 7.00712824 15.23980421 11 15 C13.48888256 12.98693323 15.24624616 10.66384579 17 8 C17.33 8.66 17.66 9.32 18 10 C16.31525278 13.36949443 15.1808342 14.87944386 12 17 C7.79687211 17.66568876 4.17929894 17.66155794 0.4375 15.5625 C-2.28922173 10.70182213 -1.45921112 5.2199422 0 0 Z " fill="#DB682F" transform="translate(52,122)"/>
<path d="M0 0 C3.16667398 1.35617729 4.82263874 2.7015784 6.8125 5.5 C7.31652344 6.20125 7.82054687 6.9025 8.33984375 7.625 C8.88769531 8.40875 9.43554688 9.1925 10 10 C10.64066406 10.9075 11.28132812 11.815 11.94140625 12.75 C13.63641848 15.16068406 15.32206113 17.57741371 17 20 C16.34 20.33 15.68 20.66 15 21 C14.34 20.67 13.68 20.34 13 20 C13 19.01 13 18.02 13 17 C12.34 17 11.68 17 11 17 C10.67 16.01 10.34 15.02 10 14 C9.34 13.67 8.68 13.34 8 13 C7.5 11 7.5 11 7 9 C6.34 8.67 5.68 8.34 5 8 C5 7.34 5 6.68 5 6 C4.01 6 3.02 6 2 6 C1.34 4.02 0.68 2.04 0 0 Z " fill="#C69B69" transform="translate(129,19)"/>
<path d="M0 0 C2.2477975 2.05233685 3.0022242 3.00667261 4 6 C4.99 6.66 5.98 7.32 7 8 C7 8.66 7 9.32 7 10 C7.99 10 8.98 10 10 10 C10 10.66 10 11.32 10 12 C6.54330418 12.31424507 4.60098323 12.37956836 1.625 10.5 C-0.73613198 6.86748926 -0.2854378 4.28156703 0 0 Z " fill="#0E1618" transform="translate(33,77)"/>
<path d="M0 0 C3.875 2.625 3.875 2.625 5 6 C5.22325814 8.05893621 5.40705759 10.12233653 5.5625 12.1875 C5.64628906 13.27417969 5.73007813 14.36085938 5.81640625 15.48046875 C5.87699219 16.31191406 5.93757812 17.14335938 6 18 C6.66 17.01 7.32 16.02 8 15 C7.46884894 19.51478398 5.63379708 22.34666857 3 26 C1.8996601 22.69898029 2.15698681 22.18408361 3 19 C3.14132787 17.02412764 3.22002734 15.04319351 3.25 13.0625 C3.27578125 12.04285156 3.3015625 11.02320312 3.328125 9.97265625 C2.95571781 6.59882446 1.85060492 4.80025745 0 2 C0 1.34 0 0.68 0 0 Z " fill="#59443D" transform="translate(128,62)"/>
<path d="M0 0 C2.00720923 0.28674418 4.0085944 0.61866701 6 1 C6.3125 3.25 6.3125 3.25 6 6 C3.5 8.3125 3.5 8.3125 1 10 C0.63883954 8.5225254 0.28624952 7.04295325 -0.0625 5.5625 C-0.25972656 4.73878906 -0.45695313 3.91507812 -0.66015625 3.06640625 C-0.82837891 2.04353516 -0.82837891 2.04353516 -1 1 C-0.67 0.67 -0.34 0.34 0 0 Z " fill="#DCA350" transform="translate(2,93)"/>
<path d="M0 0 C3.29624584 2.71940282 4.86049764 4.14748556 5.5625 8.4375 C4.91022942 12.56854698 3.61482434 14.76992287 1 18 C-1.40545638 19.20272819 -2.94996953 19.10071472 -5.625 19.0625 C-6.85089844 19.04896484 -6.85089844 19.04896484 -8.1015625 19.03515625 C-8.72804687 19.02355469 -9.35453125 19.01195313 -10 19 C-10 18.67 -10 18.34 -10 18 C-9.30132812 17.89042969 -8.60265625 17.78085938 -7.8828125 17.66796875 C-6.97273438 17.50941406 -6.06265625 17.35085937 -5.125 17.1875 C-4.22007813 17.03667969 -3.31515625 16.88585937 -2.3828125 16.73046875 C0.34412478 16.16948699 0.34412478 16.16948699 2 13 C2.45139459 10.9507906 2.45139459 10.9507906 2.625 8.8125 C2.74875 7.554375 2.8725 6.29625 3 5 C2.34 5 1.68 5 1 5 C0.67 3.35 0.34 1.7 0 0 Z " fill="#385F67" transform="translate(48,71)"/>
<path d="M0 0 C1.32 0 2.64 0 4 0 C4 0.66 4 1.32 4 2 C3.01 2.7734375 3.01 2.7734375 2 3.5625 C-0.56521044 6.68885023 -0.68364806 8.64250998 -0.5390625 12.60546875 C0.41888035 16.86067864 3.10763571 19.84078067 6 23 C2.12010972 21.13067385 -0.43980482 19.58427325 -3 16 C-3.36131108 10.27924127 -2.28238682 5.22770758 0 0 Z " fill="#B7F5F5" transform="translate(29,69)"/>
<path d="M0 0 C0.66 0.33 1.32 0.66 2 1 C2.6328125 3.28515625 2.6328125 3.28515625 3.125 6.0625 C3.29257813 6.98160156 3.46015625 7.90070313 3.6328125 8.84765625 C3.75398438 9.55792969 3.87515625 10.26820312 4 11 C3.34 10.67 2.68 10.34 2 10 C1.375 7.9375 1.375 7.9375 1 6 C-0.32 8.31 -1.64 10.62 -3 13 C-3.33 13 -3.66 13 -4 13 C-3.55966813 7.80408388 -3.11696661 4.33664919 0 0 Z " fill="#E37B34" transform="translate(75,116)"/>
<path d="M0 0 C0.66 2.31 1.32 4.62 2 7 C-1.33333333 5.66666667 -4.66666667 4.33333333 -8 3 C-8 5.64 -8 8.28 -8 11 C-8.33 11 -8.66 11 -9 11 C-9 8.03 -9 5.06 -9 2 C-2.25 0 -2.25 0 0 0 Z " fill="#41414C" transform="translate(41,73)"/>
<path d="M0 0 C0.33 1.65 0.66 3.3 1 5 C0.67 4.01 0.34 3.02 0 2 C-5.13574754 2.43523284 -8.77764767 2.80124824 -13 6 C-13.33 6.66 -13.66 7.32 -14 8 C-14.66 8 -15.32 8 -16 8 C-16.33 8.99 -16.66 9.98 -17 11 C-16.73821412 7.16047378 -16.45624385 5.45624385 -13.6875 2.6875 C-9.04209939 -0.22937945 -5.46523322 -0.10510064 0 0 Z " fill="#ABF5F1" transform="translate(111,64)"/>
<path d="M0 0 C0 0.99 0 1.98 0 3 C-1.73034298 3.73206818 -3.46072703 4.46403959 -5.19140625 5.1953125 C-7.09719754 6.00700819 -7.09719754 6.00700819 -9.1875 7.25 C-11.50419879 8.20863398 -12.64486602 7.68264753 -15 7 C-13.56542672 6.0165504 -12.12722594 5.03839079 -10.6875 4.0625 C-9.88699219 3.51722656 -9.08648437 2.97195312 -8.26171875 2.41015625 C-5.36842521 0.60622021 -3.42006328 0 0 0 Z " fill="#CB9C5F" transform="translate(44,4)"/>
<path d="M0 0 C1.125 3.75 1.125 3.75 0 6 C2.64 6 5.28 6 8 6 C8.33 5.01 8.66 4.02 9 3 C9.33 4.65 9.66 6.3 10 8 C6.04 8 2.08 8 -2 8 C-2 2 -2 2 0 0 Z " fill="#ECA43C" transform="translate(72,128)"/>
<path d="M0 0 C1.33333333 0.66666667 2.66666667 1.33333333 4 2 C4.680625 2.20625 5.36125 2.4125 6.0625 2.625 C9.34428253 4.95400695 10.22529204 8.21827744 11 12 C11.23348721 16.34683631 11.17895903 20.65195832 11 25 C10.67 25 10.34 25 10 25 C9.98582031 24.2265625 9.97164062 23.453125 9.95703125 22.65625 C9.62409938 15.38573789 8.53284809 10.70559076 4 5 C2.8553125 3.515 2.8553125 3.515 1.6875 2 C1.130625 1.34 0.57375 0.68 0 0 Z " fill="#9E6D2F" transform="translate(126,52)"/>
<path d="M0 0 C2 1 2 1 3 2 C4.85287502 2.07226502 6.70833878 2.0838122 8.5625 2.0625 C9.57441406 2.05347656 10.58632812 2.04445312 11.62890625 2.03515625 C12.41136719 2.02355469 13.19382812 2.01195312 14 2 C14 2.33 14 2.66 14 3 C13.20335938 3.10957031 12.40671875 3.21914063 11.5859375 3.33203125 C5.84431803 4.19117869 1.09051083 5.05286215 -4 8 C-4.66 8 -5.32 8 -6 8 C-4.55746343 4.63408134 -2.66735273 2.48952921 0 0 Z " fill="#433430" transform="translate(103,51)"/>
<path d="M0 0 C7.73389139 1.37491402 14.89854796 6.16957418 19.828125 12.2578125 C20.21484375 12.83273438 20.6015625 13.40765625 21 14 C18.53199953 12.84826645 16.95216435 11.95216435 15 10 C14.319375 9.835 13.63875 9.67 12.9375 9.5 C12.298125 9.335 11.65875 9.17 11 9 C10.67 8.34 10.34 7.68 10 7 C9.01 6.67 8.02 6.34 7 6 C6.67 5.34 6.34 4.68 6 4 C4.02111039 3.27306096 2.02045442 2.60183749 0 2 C0 1.34 0 0.68 0 0 Z " fill="#C69969" transform="translate(108,5)"/>
<path d="M0 0 C0.66 0.33 1.32 0.66 2 1 C1.5188509 6.77378925 -0.18467181 10.95859836 -3 16 C-4.13891534 12.58325399 -3.83543755 10.93822735 -3.1875 7.4375 C-3.01605469 6.46683594 -2.84460938 5.49617188 -2.66796875 4.49609375 C-2 2 -2 2 0 0 Z " fill="#B47D4E" transform="translate(147,99)"/>
<path d="M0 0 C1.65 0 3.3 0 5 0 C4.649375 0.5775 4.29875 1.155 3.9375 1.75 C2.85082593 4.35801776 3.06934867 5.39417629 4 8 C5.98 7.67 7.96 7.34 10 7 C9.67 7.99 9.34 8.98 9 10 C6.36 10.33 3.72 10.66 1 11 C-0.17571451 7.32589215 -0.07366746 3.83070817 0 0 Z " fill="#382A3D" transform="translate(41,70)"/>
<path d="M0 0 C0.33 0.99 0.66 1.98 1 3 C-0.41152344 3.07347656 -0.41152344 3.07347656 -1.8515625 3.1484375 C-3.71941406 3.26058594 -3.71941406 3.26058594 -5.625 3.375 C-6.85476562 3.44460937 -8.08453125 3.51421875 -9.3515625 3.5859375 C-12.83653855 3.9814487 -15.73049601 4.76261849 -19 6 C-18.34 5.01 -17.68 4.02 -17 3 C-16.01 3 -15.02 3 -14 3 C-14 2.34 -14 1.68 -14 1 C-12.22932584 0.83165067 -10.45845388 0.66538091 -8.6875 0.5 C-7.70136719 0.4071875 -6.71523438 0.314375 -5.69921875 0.21875 C-3 0 -3 0 0 0 Z " fill="#383032" transform="translate(46,51)"/>
<path d="M0 0 C2.64964989 4.52648522 3.50442453 7.75398486 3 13 C2.34 13.66 1.68 14.32 1 15 C0.98582031 14.38511719 0.97164063 13.77023438 0.95703125 13.13671875 C0.81117948 10.6651226 0.60707755 8.40265902 0 6 C-2.4251788 4.00916823 -2.4251788 4.00916823 -5 3 C-5 2.34 -5 1.68 -5 1 C-3 0 -3 0 0 0 Z " fill="#88E3E2" transform="translate(120,70)"/>
<path d="M0 0 C1.32 0.33 2.64 0.66 4 1 C4 2.32 4 3.64 4 5 C0.91111478 7.05925681 0.29064073 7.2390374 -3.1875 7.125 C-5.0746875 7.063125 -5.0746875 7.063125 -7 7 C-7.33 6.34 -7.66 5.68 -8 5 C-5.36 4.67 -2.72 4.34 0 4 C0 2.68 0 1.36 0 0 Z " fill="#CC5A2B" transform="translate(108,32)"/>
<path d="M0 0 C-4.27679091 4.27679091 -8.84557277 4.23017302 -14.59765625 4.265625 C-17.14986564 3.98342949 -18.79551057 3.2829823 -21 2 C-20.08476563 1.93941406 -19.16953125 1.87882812 -18.2265625 1.81640625 C-16.44378906 1.69072266 -16.44378906 1.69072266 -14.625 1.5625 C-13.44164063 1.48128906 -12.25828125 1.40007812 -11.0390625 1.31640625 C-7.09632314 0.90591539 -4.11134497 -0.08937706 0 0 Z " fill="#D7A057" transform="translate(126,94)"/>
<path d="M0 0 C0 3 0 3 -1 6 C-1.66 6 -2.32 6 -3 6 C-3.33 10.29 -3.66 14.58 -4 19 C-4.66 19 -5.32 19 -6 19 C-6 15.04 -6 11.08 -6 7 C-5.34 7 -4.68 7 -4 7 C-3.71125 6.21625 -3.4225 5.4325 -3.125 4.625 C-2 2 -2 2 0 0 Z " fill="#A97633" transform="translate(18,57)"/>
<path d="M0 0 C3.63 0 7.26 0 11 0 C11.33 0.99 11.66 1.98 12 3 C5.565 3.495 5.565 3.495 -1 4 C-0.67 2.68 -0.34 1.36 0 0 Z " fill="#1D1108" transform="translate(31,49)"/>
<path d="M0 0 C0.33 0.66 0.66 1.32 1 2 C0.67 2.99 0.34 3.98 0 5 C0.9590625 5.4640625 0.9590625 5.4640625 1.9375 5.9375 C4 7 4 7 5 8 C6.34747084 8.23075082 7.70377565 8.41153063 9.0625 8.5625 C10.361875 8.706875 11.66125 8.85125 13 9 C13 9.66 13 10.32 13 11 C7.7418187 11.31549088 4.53627373 10.70016294 0 8 C-1 7 -1 7 -1.125 4 C-1 1 -1 1 0 0 Z " fill="#E79F47" transform="translate(95,31)"/>
<path d="M0 0 C0.66 0.33 1.32 0.66 2 1 C1.01 1.33 0.02 1.66 -1 2 C-1.12375 2.78375 -1.2475 3.5675 -1.375 4.375 C-2 7 -2 7 -4 9 C-4.70710678 10.64991582 -5.37943989 12.31562256 -6 14 C-6.66 14 -7.32 14 -8 14 C-8 14.66 -8 15.32 -8 16 C-8.66 16 -9.32 16 -10 16 C-10.33 17.65 -10.66 19.3 -11 21 C-11.8125 19.375 -11.8125 19.375 -12 17 C-10.82549493 15.46661838 -9.63750523 13.9384753 -8.33984375 12.5078125 C-5.86076213 9.71794222 -4.27540678 6.71281754 -2.9375 3.25 C-2 1 -2 1 0 0 Z " fill="#E7BB57" transform="translate(19,22)"/>
<path d="M0 0 C2 0 2 0 4.5 2.3125 C8.95838433 7.10526316 8.95838433 7.10526316 9.125 10.6875 C9.08375 11.450625 9.0425 12.21375 9 13 C8.01 12.67 7.02 12.34 6 12 C5.33333333 10 4.66666667 8 4 6 C3.01 5.67 2.02 5.34 1 5 C0.67 3.35 0.34 1.7 0 0 Z " fill="#D59B4B" transform="translate(16,117)"/>
<path d="M0 0 C-3.08161875 3.05741756 -5.67469749 3.36525695 -9.94140625 3.36132812 C-10.66199219 3.34521484 -11.38257812 3.32910156 -12.125 3.3125 C-12.85332031 3.31572266 -13.58164063 3.31894531 -14.33203125 3.32226562 C-19.73263889 3.26736111 -19.73263889 3.26736111 -22 1 C-21.20335938 1.02320312 -20.40671875 1.04640625 -19.5859375 1.0703125 C-13.43729845 1.17503385 -5.43572591 -2.09066381 0 0 Z " fill="#C0BFBB" transform="translate(124,92)"/>
<path d="M0 0 C0.99 0 1.98 0 3 0 C2.67 1.32 2.34 2.64 2 4 C1.34 4 0.68 4 0 4 C-0.433125 5.1446875 -0.433125 5.1446875 -0.875 6.3125 C-2 9 -2 9 -4 12 C-4.66 12 -5.32 12 -6 12 C-4.83794969 7.06128619 -3.6922906 3.6922906 0 0 Z " fill="#BF824F" transform="translate(139,116)"/>
<path d="M0 0 C0.7734375 0.3403125 0.7734375 0.3403125 1.5625 0.6875 C-1.66541555 2.8394437 -2.72150809 2.88836443 -6.4375 2.6875 C-6.4375 3.3475 -6.4375 4.0075 -6.4375 4.6875 C-8.70807377 4.74148987 -10.97901288 4.78028742 -13.25 4.8125 C-15.14685547 4.84730469 -15.14685547 4.84730469 -17.08203125 4.8828125 C-20.4375 4.6875 -20.4375 4.6875 -23.4375 2.6875 C-22.04337891 2.73970703 -22.04337891 2.73970703 -20.62109375 2.79296875 C-13.90884751 2.93995224 -5.80057649 -0.74366365 0 0 Z " fill="#EFB543" transform="translate(128.4375,94.3125)"/>
<path d="M0 0 C0.33 0 0.66 0 1 0 C1.04254356 1.99954746 1.04080783 4.00041636 1 6 C0.67 6.33 0.34 6.66 0 7 C-0.23363881 8.84891946 -0.41303635 10.70488031 -0.5625 12.5625 C-0.64628906 13.57441406 -0.73007812 14.58632812 -0.81640625 15.62890625 C-0.87699219 16.41136719 -0.93757813 17.19382812 -1 18 C-1.66 17.67 -2.32 17.34 -3 17 C-3.55353075 5.47835991 -3.55353075 5.47835991 0 0 Z " fill="#1D0F0C" transform="translate(18,61)"/>
<path d="M0 0 C2.94544195 2.6776745 4.87729807 4.93781593 5.12109375 9.03515625 C5.12460114 11.02384409 5.0662529 13.01241298 5 15 C4.34 15 3.68 15 3 15 C2.49363393 13.25183142 1.99515381 11.50137737 1.5 9.75 C1.2215625 8.77546875 0.943125 7.8009375 0.65625 6.796875 C0 4 0 4 0 0 Z " fill="#CEA26F" transform="translate(145,41)"/>
<path d="M0 0 C0.6290625 0.20496094 1.258125 0.40992187 1.90625 0.62109375 C7.30281819 2.31971235 12.36659614 3.47838853 18 4 C18 4.33 18 4.66 18 5 C15.56183415 5.0809723 13.12635616 5.14046972 10.6875 5.1875 C9.65206055 5.22520508 9.65206055 5.22520508 8.59570312 5.26367188 C3.4824036 5.33777767 3.4824036 5.33777767 1.01953125 3.61328125 C0 2 0 2 0 0 Z " fill="#DEA345" transform="translate(24,93)"/>
<path d="M0 0 C1.18851563 0.00902344 2.37703125 0.01804688 3.6015625 0.02734375 C4.51679687 0.03894531 5.43203125 0.05054688 6.375 0.0625 C6.375 0.3925 6.375 0.7225 6.375 1.0625 C0.93 1.5575 0.93 1.5575 -4.625 2.0625 C-2.315 2.3925 -0.005 2.7225 2.375 3.0625 C2.375 3.3925 2.375 3.7225 2.375 4.0625 C-4.06 4.5575 -4.06 4.5575 -10.625 5.0625 C-7.73724577 -0.71300845 -6.1080001 -0.05988235 0 0 Z " fill="#362313" transform="translate(113.625,48.9375)"/>
<path d="M0 0 C0.66 0 1.32 0 2 0 C2.66 0.99 3.32 1.98 4 3 C5.96361864 3.57748803 5.96361864 3.57748803 8.125 3.6875 C9.40375 3.790625 10.6825 3.89375 12 4 C12 4.66 12 5.32 12 6 C10.18757948 6.02687279 8.37504767 6.04633715 6.5625 6.0625 C5.55316406 6.07410156 4.54382812 6.08570313 3.50390625 6.09765625 C1 6 1 6 0 5 C-0.04063832 3.33382885 -0.042721 1.66611905 0 0 Z " fill="#CA5A2A" transform="translate(39,33)"/>
<path d="M0 0 C0.97582031 0.00902344 1.95164062 0.01804688 2.95703125 0.02734375 C3.69308594 0.03894531 4.42914063 0.05054688 5.1875 0.0625 C5.5175 1.7125 5.8475 3.3625 6.1875 5.0625 C5.5275 4.0725 4.8675 3.0825 4.1875 2.0625 C-1.93807212 1.48461584 -5.77799233 2.70616155 -10.8125 6.0625 C-10.8125 4.4125 -10.8125 2.7625 -10.8125 1.0625 C-7.13862505 0.20951624 -3.7677607 -0.04539471 0 0 Z " fill="#E2FBFB" transform="translate(106.8125,62.9375)"/>
<path d="M0 0 C4.54805635 -0.17835515 7.8794254 0.00214565 12 2 C12 2.66 12 3.32 12 4 C12.99 4 13.98 4 15 4 C14.67 5.32 14.34 6.64 14 8 C13.49210937 7.57847656 12.98421875 7.15695313 12.4609375 6.72265625 C8.36302174 3.46120644 5.42011235 1.27100562 0 1 C0 0.67 0 0.34 0 0 Z " fill="#DACBD5" transform="translate(109,55)"/>
<path d="M0 0 C1.38308641 2.76617283 0.90563946 4.07408791 0 7 C-1.8125 9.375 -1.8125 9.375 -4 11 C-6.13671875 10.6015625 -6.13671875 10.6015625 -8 10 C-7.59007813 9.52949219 -7.18015625 9.05898437 -6.7578125 8.57421875 C-6.21898438 7.95160156 -5.68015625 7.32898438 -5.125 6.6875 C-4.59132813 6.07261719 -4.05765625 5.45773438 -3.5078125 4.82421875 C-1.8359553 2.86501788 -1.8359553 2.86501788 0 0 Z " fill="#95745A" transform="translate(130,83)"/>
<path d="M0 0 C1.37478516 0.01740234 1.37478516 0.01740234 2.77734375 0.03515625 C3.69644531 0.04417969 4.61554687 0.05320313 5.5625 0.0625 C6.27277344 0.07410156 6.98304687 0.08570313 7.71484375 0.09765625 C7.71484375 0.75765625 7.71484375 1.41765625 7.71484375 2.09765625 C5.07484375 2.09765625 2.43484375 2.09765625 -0.28515625 2.09765625 C-0.28515625 3.41765625 -0.28515625 4.73765625 -0.28515625 6.09765625 C-0.94515625 6.09765625 -1.60515625 6.09765625 -2.28515625 6.09765625 C-2.66734392 4.44150968 -2.99910727 2.77308601 -3.28515625 1.09765625 C-2.28515625 0.09765625 -2.28515625 0.09765625 0 0 Z " fill="#D1FAF9" transform="translate(39.28515625,62.90234375)"/>
<path d="M0 0 C1.98 0.66 3.96 1.32 6 2 C6.33 3.98 6.66 5.96 7 8 C3.535 6.02 3.535 6.02 0 4 C0 2.68 0 1.36 0 0 Z " fill="#120B0A" transform="translate(124,54)"/>
<path d="M0 0 C3.51121797 0.2926015 4.80482666 0.8099628 7.375 3.3125 C9 6 9 6 8.75 8.3125 C8.5025 8.869375 8.255 9.42625 8 10 C4.535 8.02 4.535 8.02 1 6 C1.99 5.34 2.98 4.68 4 4 C4 3.34 4 2.68 4 2 C2.68 1.67 1.36 1.34 0 1 C0 0.67 0 0.34 0 0 Z " fill="#665448" transform="translate(42,49)"/>
<path d="M0 0 C0.99 0.33 1.98 0.66 3 1 C4.14077657 4.42232972 4.09815117 7.08673217 4.0625 10.6875 C4.05347656 11.86699219 4.04445312 13.04648438 4.03515625 14.26171875 C4.02355469 15.16535156 4.01195312 16.06898437 4 17 C3.67 17 3.34 17 3 17 C0.88838269 5.47835991 0.88838269 5.47835991 0 0 Z " fill="#E9AD3F" transform="translate(136,61)"/>
<path d="M0 0 C0.33 0 0.66 0 1 0 C1.08071788 2.79224073 1.14035408 5.58216566 1.1875 8.375 C1.21263672 9.1690625 1.23777344 9.963125 1.26367188 10.78125 C1.29004405 12.85586148 1.15486462 14.93100865 1 17 C0.01 17.66 -0.98 18.32 -2 19 C-2 16.69 -2 14.38 -2 12 C-1.34 12 -0.68 12 0 12 C0 8.04 0 4.08 0 0 Z " fill="#A0D8C6" transform="translate(56,69)"/>
<path d="M0 0 C2.53125 -0.36328125 2.53125 -0.36328125 5.5 -0.3125 C6.4796875 -0.30863281 7.459375 -0.30476563 8.46875 -0.30078125 C11 0 11 0 13 2 C8.05 2.33 3.1 2.66 -2 3 C-1.34 2.01 -0.68 1.02 0 0 Z " fill="#A98032" transform="translate(29,47)"/>
<path d="M0 0 C0.66 0.33 1.32 0.66 2 1 C0.625 2.5 0.625 2.5 -1 4 C-1.66 4 -2.32 4 -3 4 C-3.2475 4.78375 -3.495 5.5675 -3.75 6.375 C-5.15389099 9.32317108 -6.00675737 9.9024777 -9 11 C-8.46324097 7.14896699 -6.88399077 5.68202413 -3.9375 3.25 C-3.20402344 2.63640625 -2.47054688 2.0228125 -1.71484375 1.390625 C-1.14894531 0.93171875 -0.58304688 0.4728125 0 0 Z " fill="#CCA16E" transform="translate(27,12)"/>
<path d="M0 0 C0.66 0.33 1.32 0.66 2 1 C1.979375 2.03125 1.95875 3.0625 1.9375 4.125 C1.99276661 7.55152969 2.34550715 10.64572414 3 14 C1 12.5625 1 12.5625 -1 10 C-1.40796183 6.96942639 -1.37541519 4.03409323 -1 1 C-0.67 0.67 -0.34 0.34 0 0 Z " fill="#6FDEE6" transform="translate(29,74)"/>
<path d="M0 0 C0 1.65 0 3.3 0 5 C-0.66 4.34 -1.32 3.68 -2 3 C-5.97357645 2.47018981 -7.54170381 2.68118526 -10.875 5 C-11.57625 5.66 -12.2775 6.32 -13 7 C-10.66265451 0.83790735 -6.22059253 -0.43399483 0 0 Z " fill="#4B8589" transform="translate(111,68)"/>
<path d="M0 0 C0.99773437 0.02320313 1.99546875 0.04640625 3.0234375 0.0703125 C4.52777344 0.09738281 4.52777344 0.09738281 6.0625 0.125 C6.83335938 0.14820313 7.60421875 0.17140625 8.3984375 0.1953125 C8.3984375 1.1853125 8.3984375 2.1753125 8.3984375 3.1953125 C4.1084375 2.8653125 -0.1815625 2.5353125 -4.6015625 2.1953125 C-2.6015625 0.1953125 -2.6015625 0.1953125 0 0 Z " fill="#0F0705" transform="translate(111.6015625,49.8046875)"/>
<path d="M0 0 C0.66 0 1.32 0 2 0 C4 3 4 3 4 6 C5.32 6.66 6.64 7.32 8 8 C8 8.66 8 9.32 8 10 C4.63362603 8.5572683 2.33497429 6.83532593 0 4 C0 2.68 0 1.36 0 0 Z " fill="#CF9D54" transform="translate(16,84)"/>
<path d="M0 0 C2.86724686 0.57344937 3.8614515 0.8614515 6 3 C8.32275177 3.40047444 10.65739357 3.7397104 13 4 C13 4.33 13 4.66 13 5 C11.58376784 5.05447047 10.16691809 5.09300508 8.75 5.125 C7.96109375 5.14820312 7.1721875 5.17140625 6.359375 5.1953125 C3.79268059 4.9828378 2.2083933 4.28654105 0 3 C0 2.01 0 1.02 0 0 Z " fill="#50B9C2" transform="translate(32,86)"/>
<path d="M0 0 C0.33 0 0.66 0 1 0 C1.33 5.28 1.66 10.56 2 16 C1.01 15.01 0.02 14.02 -1 13 C-1 12.34 -1 11.68 -1 11 C-1.66 11 -2.32 11 -3 11 C-2.67 10.34 -2.34 9.68 -2 9 C-1.34 9.33 -0.68 9.66 0 10 C0 6.7 0 3.4 0 0 Z " fill="#77645C" transform="translate(18,71)"/>
<path d="M0 0 C0.5775 0.226875 1.155 0.45375 1.75 0.6875 C-4.53571429 6.25892857 -4.53571429 6.25892857 -8.25 6.6875 C-6.65594781 2.8352072 -4.57967475 -0.63606594 0 0 Z " fill="#60411C" transform="translate(27.25,50.3125)"/>
<path d="M0 0 C0 0.66 0 1.32 0 2 C-3.82989106 3.80230168 -6.78121808 4.19622241 -11 4 C-11 3.34 -11 2.68 -11 2 C-9.5422647 1.664061 -8.08378894 1.33133376 -6.625 1 C-5.40683594 0.7215625 -5.40683594 0.7215625 -4.1640625 0.4375 C-2 0 -2 0 0 0 Z " fill="#BD8854" transform="translate(106,146)"/>
<path d="M0 0 C3.47478479 3.01148016 4.97043629 5.50735835 6 10 C5.54296875 12.1875 5.54296875 12.1875 5 14 C0.59225513 4.58997722 0.59225513 4.58997722 0 0 Z " fill="#E98D3A" transform="translate(95,115)"/>
<path d="M0 0 C5.02470674 2.37277818 6.56030983 5.21097855 9 10 C7.68 9.67 6.36 9.34 5 9 C5 8.01 5 7.02 5 6 C4.34 6 3.68 6 3 6 C2.67 5.01 2.34 4.02 2 3 C1.34 2.67 0.68 2.34 0 2 C0 1.34 0 0.68 0 0 Z " fill="#CDA374" transform="translate(137,30)"/>
<path d="M0 0 C0.66 0 1.32 0 2 0 C2.33 0.99 2.66 1.98 3 3 C4.99665314 4.68538601 4.99665314 4.68538601 7 6 C6.67 6.99 6.34 7.98 6 9 C0.42857143 3.85714286 0.42857143 3.85714286 0 0 Z " fill="#D5A678" transform="translate(4,104)"/>
<path d="M0 0 C0.474375 0.61875 0.94875 1.2375 1.4375 1.875 C4.97804547 4.8110621 8.53827956 5.27544711 13 6 C13 6.33 13 6.66 13 7 C8.17639811 7.19294408 4.50353262 6.75747614 0 5 C0 3.35 0 1.7 0 0 Z " fill="#47A8B1" transform="translate(98,84)"/>
<path d="M0 0 C1.343231 2.686462 0.67960047 3.69297114 -0.25 6.5 C-0.62898437 7.69109375 -0.62898437 7.69109375 -1.015625 8.90625 C-2 11 -2 11 -5 13 C-4.54803755 11.39402675 -4.08817673 9.79027492 -3.625 8.1875 C-3.36976563 7.29417969 -3.11453125 6.40085937 -2.8515625 5.48046875 C-2 3 -2 3 0 0 Z " fill="#E5A83C" transform="translate(138,78)"/>
<path d="M0 0 C2 2 2 2 2.125 5.625 C2.08375 6.73875 2.0425 7.8525 2 9 C1.34 9 0.68 9 0 9 C-0.66 7.02 -1.32 5.04 -2 3 C-1.34 3 -0.68 3 0 3 C0 2.01 0 1.02 0 0 Z " fill="#AF9075" transform="translate(56,60)"/>
<path d="M0 0 C2.79872437 2.52788007 4.45773019 4.20411134 5 8 C4.34 8 3.68 8 3 8 C3 7.34 3 6.68 3 6 C2.01 6.33 1.02 6.66 0 7 C-0.66 6.01 -1.32 5.02 -2 4 C-1.34 4 -0.68 4 0 4 C0 2.68 0 1.36 0 0 Z " fill="#321D13" transform="translate(130,57)"/>
<path d="M0 0 C0.66 0.33 1.32 0.66 2 1 C0.86500606 4.29148243 0.00716624 4.9959869 -3.125 6.75 C-4.548125 7.36875 -4.548125 7.36875 -6 8 C-4.55746343 4.63408134 -2.66735273 2.48952921 0 0 Z " fill="#C1ADBA" transform="translate(27,57)"/>
<path d="M0 0 C4.55015893 1.51671964 6.50057264 5.16891053 9 9 C5.18063472 7.44396229 2.73955562 5.04395069 0 2 C0 1.34 0 0.68 0 0 Z " fill="#BCECEF" transform="translate(26,83)"/>
<path d="M0 0 C1.40457737 2.80915474 1.24895157 4.88810534 1 8 C-0.5 10.375 -0.5 10.375 -2 12 C-2.17835515 7.45194365 -1.99785435 4.1205746 0 0 Z " fill="#A27A51" transform="translate(94,59)"/>
<path d="M0 0 C0.66 0.33 1.32 0.66 2 1 C1.67 2.65 1.34 4.3 1 6 C0.01 6 -0.98 6 -2 6 C-1.125 1.125 -1.125 1.125 0 0 Z " fill="#C88C4D" transform="translate(147,99)"/>
<path d="M0 0 C0.99 0 1.98 0 3 0 C3.6875 1.8125 3.6875 1.8125 4 4 C2.5625 5.75 2.5625 5.75 1 7 C0.67 4.69 0.34 2.38 0 0 Z " fill="#D9B179" transform="translate(2,96)"/>
<path d="M0 0 C-3.75 3 -3.75 3 -6 3 C-6.33 3.99 -6.66 4.98 -7 6 C-7.33 5.34 -7.66 4.68 -8 4 C-6.19791982 -0.57451121 -4.66400339 -1.39920102 0 0 Z " fill="#E0CFDB" transform="translate(35,57)"/>
<path d="M0 0 C0.99 0 1.98 0 3 0 C3 0.99 3 1.98 3 3 C1.02 3.66 -0.96 4.32 -3 5 C-2.67 4.34 -2.34 3.68 -2 3 C-1.34 3 -0.68 3 0 3 C0 2.01 0 1.02 0 0 Z M-5 5 C-4.34 5.33 -3.68 5.66 -3 6 C-3.99 6.66 -4.98 7.32 -6 8 C-5.67 7.01 -5.34 6.02 -5 5 Z " fill="#F0C15D" transform="translate(44,4)"/>
<path d="M0 0 C1.9375 0.375 1.9375 0.375 4 1 C5.35439668 3.70879335 5.06501451 6.00933268 5 9 C4.731875 8.443125 4.46375 7.88625 4.1875 7.3125 C2.89877353 4.80287477 1.47073522 2.40665764 0 0 Z " fill="#D8AC7A" transform="translate(17,122)"/>
<path d="M0 0 C5.94 0.99 5.94 0.99 12 2 C12 2.33 12 2.66 12 3 C10.56732696 3.27632268 9.12836665 3.52019671 7.6875 3.75 C6.88699219 3.88921875 6.08648437 4.0284375 5.26171875 4.171875 C4.51535156 4.11515625 3.76898438 4.0584375 3 4 C2.01 2.68 1.02 1.36 0 0 Z " fill="#64CAD0" transform="translate(99,89)"/>
<path d="M0 0 C-3.96 1.98 -3.96 1.98 -8 4 C-7.67 2.68 -7.34 1.36 -7 0 C-3.98968256 -0.93423645 -3.13349732 -1.04449911 0 0 Z " fill="#B97950" transform="translate(114,144)"/>
<path d="M0 0 C0.94875 0.350625 1.8975 0.70125 2.875 1.0625 C2.545 1.7225 2.215 2.3825 1.875 3.0625 C-2.875 2.3125 -2.875 2.3125 -5.125 0.0625 C-3.125 -0.9375 -3.125 -0.9375 0 0 Z " fill="#BF915C" transform="translate(42.125,141.9375)"/>
<path d="M0 0 C0.99 0 1.98 0 3 0 C2.67 1.32 2.34 2.64 2 4 C0.35 4.33 -1.3 4.66 -3 5 C-1.6875 2.5 -1.6875 2.5 0 0 Z " fill="#B87A49" transform="translate(139,116)"/>
<path d="M0 0 C-2.90092502 1.93395001 -3.89674737 2.30131941 -7.1875 2.625 C-8.445625 2.74875 -9.70375 2.8725 -11 3 C-7.68381684 -0.31618316 -4.50821267 -1.6697084 0 0 Z " fill="#EAAD3C" transform="translate(130,95)"/>
</svg>
